<svg xmlns="http://www.w3.org/2000/svg" xmlns:xlink="http://www.w3.org/1999/xlink" width="377" zoomAndPan="magnify" viewBox="0 0 283.5 283.500005" height="377" preserveAspectRatio="xMidYMid meet" version="1.0"><defs><clipPath id="f9bd537cb1"><path d="M 82 56 L 226.855469 56 L 226.855469 243.042969 L 82 243.042969 Z M 82 56 " clip-rule="nonzero"/></clipPath><clipPath id="dc6a7c4623"><path d="M 61.105469 34.542969 L 206 34.542969 L 206 222 L 61.105469 222 Z M 61.105469 34.542969 " clip-rule="nonzero"/></clipPath><clipPath id="44685a8d2c"><path d="M 61.105469 34.542969 L 98 34.542969 L 98 71 L 61.105469 71 Z M 61.105469 34.542969 " clip-rule="nonzero"/></clipPath></defs><g clip-path="url(#f9bd537cb1)"><path fill="#9ca6b3" d="M 205.1875 56.109375 L 219.589844 56.109375 C 223.539062 56.109375 226.789062 59.355469 226.789062 63.300781 L 226.789062 235.851562 C 226.789062 239.8125 223.539062 243.042969 219.589844 243.042969 L 89.976562 243.042969 C 86.027344 243.042969 82.777344 239.8125 82.777344 235.851562 L 82.777344 221.472656 L 205.1875 56.109375 " fill-opacity="1" fill-rule="nonzero"/></g><g clip-path="url(#dc6a7c4623)"><path fill="#dee4e5" d="M 205.1875 41.730469 L 205.1875 214.28125 C 205.1875 218.242188 201.9375 221.472656 197.984375 221.472656 L 68.375 221.472656 C 64.410156 221.472656 61.175781 218.242188 61.175781 214.28125 L 61.175781 70.488281 L 97.179688 34.542969 L 197.984375 34.542969 C 201.9375 34.542969 205.1875 37.785156 205.1875 41.730469 " fill-opacity="1" fill-rule="nonzero"/></g><g clip-path="url(#44685a8d2c)"><path fill="#5b8ba6" d="M 97.179688 34.542969 L 97.179688 63.300781 C 97.179688 67.246094 93.929688 70.488281 89.976562 70.488281 L 61.175781 70.488281 L 97.179688 34.542969 " fill-opacity="1" fill-rule="nonzero"/></g><path fill="#345570" d="M 183.585938 171.144531 L 82.777344 171.144531 C 80.792969 171.144531 79.175781 169.53125 79.175781 167.550781 C 79.175781 165.570312 80.792969 163.957031 82.777344 163.957031 L 183.585938 163.957031 C 185.566406 163.957031 187.183594 165.570312 187.183594 167.550781 C 187.183594 169.53125 185.566406 171.144531 183.585938 171.144531 " fill-opacity="1" fill-rule="nonzero"/><path fill="#345570" d="M 125.980469 189.121094 L 122.378906 189.121094 C 120.398438 189.121094 118.78125 187.503906 118.78125 185.523438 C 118.78125 183.542969 120.398438 181.929688 122.378906 181.929688 L 125.980469 181.929688 C 127.964844 181.929688 129.582031 183.542969 129.582031 185.523438 C 129.582031 187.503906 127.964844 189.121094 125.980469 189.121094 " fill-opacity="1" fill-rule="nonzero"/><path fill="#345570" d="M 104.378906 189.121094 L 82.777344 189.121094 C 80.792969 189.121094 79.175781 187.503906 79.175781 185.523438 C 79.175781 183.542969 80.792969 181.929688 82.777344 181.929688 L 104.378906 181.929688 C 106.363281 181.929688 107.980469 183.542969 107.980469 185.523438 C 107.980469 187.503906 106.363281 189.121094 104.378906 189.121094 " fill-opacity="1" fill-rule="nonzero"/><path fill="#345570" d="M 93.578125 153.171875 L 82.777344 153.171875 C 80.792969 153.171875 79.175781 151.554688 79.175781 149.578125 C 79.175781 147.597656 80.792969 145.980469 82.777344 145.980469 L 93.578125 145.980469 C 95.5625 145.980469 97.179688 147.597656 97.179688 149.578125 C 97.179688 151.554688 95.5625 153.171875 93.578125 153.171875 " fill-opacity="1" fill-rule="nonzero"/><path fill="#345570" d="M 154.78125 153.171875 L 111.578125 153.171875 C 109.597656 153.171875 107.980469 151.554688 107.980469 149.578125 C 107.980469 147.597656 109.597656 145.980469 111.578125 145.980469 L 154.78125 145.980469 C 156.765625 145.980469 158.382812 147.597656 158.382812 149.578125 C 158.382812 151.554688 156.765625 153.171875 154.78125 153.171875 " fill-opacity="1" fill-rule="nonzero"/><path fill="#345570" d="M 183.585938 153.171875 L 172.785156 153.171875 C 170.800781 153.171875 169.183594 151.554688 169.183594 149.578125 C 169.183594 147.597656 170.800781 145.980469 172.785156 145.980469 L 183.585938 145.980469 C 185.566406 145.980469 187.183594 147.597656 187.183594 149.578125 C 187.183594 151.554688 185.566406 153.171875 183.585938 153.171875 " fill-opacity="1" fill-rule="nonzero"/><path fill="#f2594e" d="M 107.980469 135.195312 C 107.050781 135.195312 106.136719 134.847656 105.433594 134.144531 L 83.832031 112.574219 C 82.425781 111.171875 82.425781 108.894531 83.832031 107.492188 L 105.433594 85.921875 C 106.839844 84.519531 109.117188 84.519531 110.523438 85.921875 C 111.929688 87.328125 111.929688 89.601562 110.523438 91.003906 L 91.46875 110.03125 L 110.523438 129.058594 C 111.929688 130.464844 111.929688 132.738281 110.523438 134.144531 C 109.820312 134.847656 108.90625 135.195312 107.980469 135.195312 " fill-opacity="1" fill-rule="nonzero"/><path fill="#f2594e" d="M 158.382812 135.195312 C 157.453125 135.195312 156.539062 134.847656 155.835938 134.144531 C 154.429688 132.738281 154.429688 130.464844 155.835938 129.058594 L 174.894531 110.03125 L 155.835938 91.003906 C 154.429688 89.601562 154.429688 87.328125 155.835938 85.921875 C 157.242188 84.519531 159.523438 84.519531 160.929688 85.921875 L 182.53125 107.492188 C 183.9375 108.894531 183.9375 111.171875 182.53125 112.574219 L 160.929688 134.144531 C 160.226562 134.847656 159.3125 135.195312 158.382812 135.195312 " fill-opacity="1" fill-rule="nonzero"/><path fill="#f2594e" d="M 122.378906 135.195312 C 121.832031 135.195312 121.285156 135.070312 120.761719 134.816406 C 118.992188 133.933594 118.273438 131.769531 119.160156 129.988281 L 140.761719 86.847656 C 141.648438 85.078125 143.8125 84.363281 145.597656 85.25 C 147.371094 86.132812 148.089844 88.296875 147.203125 90.078125 L 125.601562 133.21875 C 124.96875 134.464844 123.703125 135.195312 122.378906 135.195312 " fill-opacity="1" fill-rule="nonzero"/></svg>