<svg xmlns="http://www.w3.org/2000/svg" xmlns:xlink="http://www.w3.org/1999/xlink" width="377" zoomAndPan="magnify" viewBox="0 0 283.5 283.500005" height="377" preserveAspectRatio="xMidYMid meet" version="1.0"><defs><clipPath id="5a9b856354"><path d="M 67.421875 23.683594 L 235.421875 23.683594 L 235.421875 255.433594 L 67.421875 255.433594 Z M 67.421875 23.683594 " clip-rule="nonzero"/></clipPath><clipPath id="d261c75fd2"><path d="M 67.421875 167 L 204 167 L 204 232 L 67.421875 232 Z M 67.421875 167 " clip-rule="nonzero"/></clipPath></defs><g clip-path="url(#5a9b856354)"><path fill="#c4cad4" d="M 235.320312 64.605469 L 235.320312 247.441406 C 235.320312 251.84375 231.714844 255.433594 227.332031 255.433594 L 75.511719 255.433594 C 71.109375 255.433594 67.519531 251.84375 67.519531 247.441406 L 67.519531 31.671875 C 67.519531 27.273438 71.109375 23.683594 75.511719 23.683594 L 194.402344 23.683594 C 197.570312 23.683594 200.628906 24.945312 202.875 27.195312 L 231.808594 56.132812 C 234.058594 58.378906 235.320312 61.421875 235.320312 64.605469 " fill-opacity="1" fill-rule="nonzero"/></g><path fill="#7d889a" d="M 234.242188 59.644531 L 207.355469 59.644531 C 202.96875 59.644531 199.363281 56.054688 199.363281 51.652344 L 199.363281 24.804688 C 200.644531 25.351562 201.84375 26.164062 202.875 27.195312 L 231.808594 56.132812 C 232.839844 57.160156 233.652344 58.363281 234.242188 59.644531 " fill-opacity="1" fill-rule="nonzero"/><g clip-path="url(#d261c75fd2)"><path fill="#43be90" d="M 195.367188 231.457031 L 67.519531 231.457031 L 67.519531 167.527344 L 195.367188 167.527344 C 199.785156 167.527344 203.359375 171.101562 203.359375 175.519531 L 203.359375 223.464844 C 203.359375 227.882812 199.785156 231.457031 195.367188 231.457031 " fill-opacity="1" fill-rule="nonzero"/></g><path fill="#6b788a" d="M 215.34375 83.617188 L 87.496094 83.617188 C 85.296875 83.617188 83.5 81.824219 83.5 79.621094 C 83.5 77.421875 85.296875 75.625 87.496094 75.625 L 215.34375 75.625 C 217.546875 75.625 219.339844 77.421875 219.339844 79.621094 C 219.339844 81.824219 217.546875 83.617188 215.34375 83.617188 " fill-opacity="1" fill-rule="nonzero"/><path fill="#6b788a" d="M 215.34375 103.597656 L 87.496094 103.597656 C 85.296875 103.597656 83.5 101.800781 83.5 99.601562 C 83.5 97.398438 85.296875 95.605469 87.496094 95.605469 L 215.34375 95.605469 C 217.546875 95.605469 219.339844 97.398438 219.339844 99.601562 C 219.339844 101.800781 217.546875 103.597656 215.34375 103.597656 " fill-opacity="1" fill-rule="nonzero"/><path fill="#6b788a" d="M 215.34375 123.574219 L 87.496094 123.574219 C 85.296875 123.574219 83.5 121.78125 83.5 119.578125 C 83.5 117.378906 85.296875 115.582031 87.496094 115.582031 L 215.34375 115.582031 C 217.546875 115.582031 219.339844 117.378906 219.339844 119.578125 C 219.339844 121.78125 217.546875 123.574219 215.34375 123.574219 " fill-opacity="1" fill-rule="nonzero"/><path fill="#6b788a" d="M 147.425781 143.554688 L 87.496094 143.554688 C 85.296875 143.554688 83.5 141.757812 83.5 139.558594 C 83.5 137.355469 85.296875 135.5625 87.496094 135.5625 L 147.425781 135.5625 C 149.625 135.5625 151.421875 137.355469 151.421875 139.558594 C 151.421875 141.757812 149.625 143.554688 147.425781 143.554688 " fill-opacity="1" fill-rule="nonzero"/><path fill="#ffffff" d="M 187.378906 179.515625 L 163.40625 179.515625 C 161.207031 179.515625 159.410156 181.308594 159.410156 183.507812 C 159.410156 185.710938 161.207031 187.503906 163.40625 187.503906 L 171.398438 187.503906 L 171.398438 215.476562 C 171.398438 217.675781 173.191406 219.472656 175.390625 219.472656 C 177.59375 219.472656 179.386719 217.675781 179.386719 215.476562 L 179.386719 187.503906 L 187.378906 187.503906 C 189.578125 187.503906 191.371094 185.710938 191.371094 183.507812 C 191.371094 181.308594 189.578125 179.515625 187.378906 179.515625 " fill-opacity="1" fill-rule="nonzero"/><path fill="#ffffff" d="M 107.472656 179.515625 L 83.5 179.515625 C 81.300781 179.515625 79.507812 181.308594 79.507812 183.507812 C 79.507812 185.710938 81.300781 187.503906 83.5 187.503906 L 91.492188 187.503906 L 91.492188 215.476562 C 91.492188 217.675781 93.285156 219.472656 95.488281 219.472656 C 97.6875 219.472656 99.480469 217.675781 99.480469 215.476562 L 99.480469 187.503906 L 107.472656 187.503906 C 109.671875 187.503906 111.46875 185.710938 111.46875 183.507812 C 111.46875 181.308594 109.671875 179.515625 107.472656 179.515625 " fill-opacity="1" fill-rule="nonzero"/><path fill="#ffffff" d="M 149.8125 180.308594 C 148.050781 179 145.550781 179.34375 144.226562 181.121094 L 135.441406 192.84375 L 126.652344 181.121094 C 125.328125 179.34375 122.828125 178.984375 121.066406 180.308594 C 119.285156 181.636719 118.929688 184.132812 120.253906 185.898438 L 130.445312 199.492188 L 120.253906 213.085938 C 118.929688 214.851562 119.285156 217.347656 121.066406 218.675781 C 121.785156 219.207031 122.609375 219.472656 123.453125 219.472656 C 124.671875 219.472656 125.855469 218.925781 126.652344 217.863281 L 135.441406 206.140625 L 144.226562 217.863281 C 145.023438 218.925781 146.207031 219.472656 147.425781 219.472656 C 148.269531 219.472656 149.09375 219.207031 149.8125 218.675781 C 151.59375 217.347656 151.949219 214.851562 150.625 213.085938 L 140.433594 199.492188 L 150.625 185.898438 C 151.949219 184.132812 151.59375 181.636719 149.8125 180.308594 " fill-opacity="1" fill-rule="nonzero"/></svg>