<svg xmlns="http://www.w3.org/2000/svg" xmlns:xlink="http://www.w3.org/1999/xlink" width="377" zoomAndPan="magnify" viewBox="0 0 283.5 283.500005" height="377" preserveAspectRatio="xMidYMid meet" version="1.0"><defs><clipPath id="3860332851"><path d="M 0 0 L 283 0 L 283 283 L 0 283 Z M 0 0 " clip-rule="nonzero"/></clipPath><clipPath id="a5fbdfc43d"><path d="M 2 15 L 279 15 L 279 235.414062 L 2 235.414062 Z M 2 15 " clip-rule="nonzero"/></clipPath><clipPath id="25135cdac0"><path d="M 69 48.460938 L 222 48.460938 L 222 235.023438 L 69 235.023438 Z M 69 48.460938 " clip-rule="nonzero"/></clipPath></defs><g clip-path="url(#3860332851)"><path fill="#ffffff" d="M 0 0 L 283.5 0 L 283.5 291 L 0 291 Z M 0 0 " fill-opacity="1" fill-rule="nonzero"/><path fill="#ffffff" d="M 0 0 L 283.5 0 L 283.5 283.5 L 0 283.5 Z M 0 0 " fill-opacity="1" fill-rule="nonzero"/><path fill="#ffffff" d="M 0 0 L 283.5 0 L 283.5 283.5 L 0 283.5 Z M 0 0 " fill-opacity="1" fill-rule="nonzero"/></g><g clip-path="url(#a5fbdfc43d)"><path fill="#b9b4cd" d="M 269.949219 148.21875 C 272.820312 145.023438 275.039062 141.253906 276.515625 137.222656 C 279.582031 128.894531 279.441406 119.484375 275.921875 111.3125 C 273.476562 105.640625 270.316406 100.527344 266.109375 96.109375 C 259.605469 89.289062 259.292969 87.0625 258.488281 77.824219 C 257.78125 69.707031 254.105469 62.113281 249.097656 55.984375 C 239.3125 44.007812 233.632812 36.285156 218.515625 36.96875 C 217.347656 37.023438 216.214844 36.757812 215.183594 36.1875 C 201.867188 28.765625 186.597656 26.8125 172.011719 29.34375 C 169.675781 29.753906 167.199219 29.09375 165.699219 27.167969 C 156.808594 15.773438 140.519531 11.578125 128.578125 19.023438 C 126.679688 20.210938 124.488281 20.535156 122.371094 19.859375 C 114.101562 17.230469 104.921875 18.292969 97.15625 22.148438 C 90.207031 25.601562 84.960938 32.394531 77.429688 34.59375 C 56.191406 40.820312 29.890625 51.332031 31.097656 78.976562 C 31.417969 86.273438 38.058594 106.335938 28.898438 109.574219 C 0.0546875 119.769531 -6.890625 170.5625 16.363281 191.496094 C 17.667969 192.667969 18.546875 194.234375 18.78125 196.019531 C 20.652344 210.367188 26.132812 224.234375 34.902344 235.023438 L 247.570312 235.023438 C 248.503906 233.792969 249.40625 232.382812 250.269531 230.765625 C 250.34375 230.625 250.421875 230.480469 250.496094 230.332031 C 253.460938 224.636719 256.101562 217.90625 257.332031 211.585938 C 258.601562 205.09375 257.710938 198.214844 260.1875 191.960938 C 262.070312 187.214844 265.507812 183.851562 266.578125 178.675781 C 267.625 173.597656 267.476562 167.929688 265.875 162.984375 C 265.191406 160.863281 264.425781 158.710938 264.441406 156.480469 C 264.476562 152.539062 267.597656 150.847656 269.949219 148.21875 " fill-opacity="1" fill-rule="nonzero"/></g><path fill="#ffffff" d="M 85.5 166.320312 C 85.59375 165.964844 85.652344 165.597656 85.703125 165.238281 C 88.042969 163.617188 89.851562 161.523438 90.800781 159.308594 C 90.875 159.136719 90.941406 158.964844 91 158.785156 C 92.511719 160.285156 93.386719 162.257812 93.492188 164.433594 C 93.640625 167.347656 92.386719 170.378906 90.152344 172.554688 C 89.21875 173.460938 88.085938 174.257812 86.558594 175.085938 C 86.179688 172.992188 85.394531 170.945312 84.246094 169.097656 C 84.859375 168.152344 85.257812 167.265625 85.5 166.320312 Z M 66.75 183.667969 C 66.773438 183.523438 66.78125 183.382812 66.789062 183.25 C 70.261719 183.976562 73.382812 183.300781 75.847656 181.246094 C 75.945312 181.164062 76.027344 181.085938 76.113281 180.996094 L 76.128906 180.988281 C 78.15625 180.550781 80.003906 180.058594 81.773438 179.480469 C 82.699219 179.179688 83.632812 178.839844 84.550781 178.460938 C 84.492188 179.820312 84.234375 181.078125 83.765625 182.191406 C 81.292969 188.132812 73.75 190.28125 70.625 190.929688 C 67.199219 191.636719 62.558594 191.878906 58.730469 190.734375 C 63.476562 189.6875 66.355469 187.183594 66.75 183.667969 Z M 61.941406 185.402344 C 62.671875 185.144531 63.367188 184.820312 64.0625 184.410156 C 63.621094 185.574219 62.726562 186.613281 61.558594 187.226562 C 59.910156 188.101562 57.683594 188.652344 54.953125 188.863281 L 54.851562 188.792969 C 54.648438 188.644531 54.441406 188.5 54.257812 188.328125 C 53.664062 187.753906 53.175781 187.039062 52.835938 186.238281 C 56.082031 186.664062 59.148438 186.382812 61.941406 185.402344 Z M 41.71875 181.96875 C 44.378906 183.78125 47.347656 185.105469 50.347656 185.816406 C 50.566406 186.800781 50.898438 187.625 51.34375 188.332031 C 51.464844 188.523438 51.597656 188.699219 51.734375 188.871094 C 47.207031 188.46875 43.613281 186.109375 41.453125 182.109375 C 41.539062 182.066406 41.625 182.019531 41.71875 181.96875 Z M 42.550781 177.984375 C 42.355469 178.417969 42.074219 178.804688 41.71875 179.15625 C 41.027344 178.628906 40.363281 178.097656 39.765625 177.515625 L 39.445312 177.226562 C 39.355469 176.921875 39.269531 176.625 39.1875 176.335938 C 40.292969 176.945312 41.421875 177.5 42.550781 177.984375 Z M 31.308594 139.523438 C 31.691406 140.25 32.125 140.972656 32.613281 141.695312 C 31 142.457031 29.582031 143.390625 28.382812 144.472656 C 27.839844 144.960938 27.320312 145.496094 26.832031 146.078125 C 27.558594 143.78125 28.886719 141.339844 31.308594 139.523438 Z M 54.519531 130.980469 C 52.773438 131.070312 51.082031 131.257812 49.484375 131.542969 C 48.527344 131.714844 47.589844 131.960938 46.804688 132.246094 C 44.363281 132.558594 42.21875 133.601562 40.726562 135.199219 C 39.371094 134.886719 37.925781 134.824219 36.417969 135.007812 C 34.96875 135.1875 33.582031 135.59375 32.273438 136.21875 C 31.933594 135.242188 31.714844 134.3125 31.601562 133.378906 C 31.382812 131.613281 31.828125 130.144531 32.917969 129.019531 C 35.273438 126.5625 40.246094 126.023438 43.769531 126.308594 C 47.621094 126.609375 51.464844 128.039062 54.621094 130.339844 C 54.570312 130.554688 54.542969 130.773438 54.519531 130.980469 Z M 70.851562 133.113281 C 67 131.941406 62.960938 131.246094 58.84375 131.042969 C 58.382812 130.5625 57.859375 130.074219 57.265625 129.578125 C 57.316406 129.433594 57.371094 129.296875 57.4375 129.195312 C 60.589844 124.246094 68.632812 125.664062 73.078125 128.171875 C 76.921875 130.351562 79.890625 133.742188 81.410156 137.648438 C 78.488281 135.878906 75.015625 134.386719 70.851562 133.113281 Z M 88.675781 154.566406 C 86.851562 153.835938 84.703125 153.414062 82.585938 153.367188 C 82.472656 153.144531 82.359375 152.925781 82.242188 152.707031 L 82.199219 152.628906 C 82.636719 151.984375 83.003906 151.328125 83.292969 150.664062 C 84.359375 148.246094 84.828125 145.648438 84.703125 142.921875 C 86.25 144.421875 87.4375 146.070312 88.230469 147.824219 L 88.238281 147.824219 C 89.269531 150.101562 89.707031 152.589844 89.496094 154.9375 C 89.207031 154.796875 88.945312 154.671875 88.675781 154.566406 Z M 44.636719 178.867188 C 46.578125 179.589844 48.652344 180.203125 50.929688 180.726562 C 50.46875 181.566406 50.199219 182.480469 50.125 183.4375 C 49.796875 183.351562 49.472656 183.257812 49.148438 183.15625 C 47.195312 182.546875 45.3125 181.65625 43.546875 180.515625 C 44 180.015625 44.367188 179.464844 44.636719 178.867188 Z M 34.105469 143.714844 C 34.238281 143.882812 34.386719 144.050781 34.53125 144.210938 C 32.324219 145.789062 30.726562 147.625 29.746094 149.773438 C 28.703125 150.949219 27.878906 152.28125 27.292969 153.738281 C 26.992188 154.496094 26.765625 155.335938 26.59375 156.3125 C 26.539062 156.398438 26.484375 156.488281 26.429688 156.574219 C 26.113281 154.890625 25.960938 153.152344 25.992188 151.476562 C 27.417969 148.132812 30.285156 145.394531 34.105469 143.714844 Z M 58.226562 144.234375 C 55.894531 142.128906 52.839844 140.605469 50.128906 140.21875 C 49.371094 140.109375 48.550781 140.050781 47.695312 140.050781 C 47.011719 139.09375 46.25 138.257812 45.417969 137.5625 C 46.589844 136.191406 48.226562 135.175781 50.191406 134.609375 L 50.4375 134.636719 C 50.730469 134.667969 51.011719 134.703125 51.296875 134.777344 C 52.460938 135.078125 53.636719 135.558594 54.789062 136.203125 C 55.519531 138.953125 57.070312 141.546875 59.011719 143.292969 C 58.785156 143.601562 58.527344 143.914062 58.226562 144.234375 Z M 60.054688 137.378906 C 59.011719 136.371094 57.875 135.460938 56.691406 134.710938 C 56.671875 134.578125 56.65625 134.449219 56.636719 134.316406 C 57.46875 134.453125 58.269531 134.652344 59.011719 134.910156 C 59.492188 135.710938 59.84375 136.542969 60.054688 137.378906 Z M 75.078125 144.359375 C 73.882812 143.742188 72.464844 143.359375 71.050781 143.359375 C 69.789062 143.359375 68.527344 143.671875 67.453125 144.394531 C 67.683594 144.167969 67.894531 143.910156 68.078125 143.625 C 70.183594 140.207031 65.871094 136.394531 64.5 135.3125 C 63.609375 134.605469 62.558594 133.976562 61.355469 133.425781 C 66.6875 134.015625 72.171875 135.585938 77.300781 137.988281 C 79.019531 138.796875 80.710938 139.808594 82.316406 140.988281 C 82.832031 144.246094 82.339844 147.574219 80.957031 150.328125 C 79.722656 148.269531 77.859375 145.78125 75.078125 144.359375 Z M 89.046875 157.230469 C 88.457031 159.238281 87.378906 160.917969 85.847656 162.222656 C 85.804688 162.257812 85.765625 162.289062 85.726562 162.320312 C 85.484375 160.027344 84.65625 157.804688 83.699219 155.699219 C 85.679688 155.882812 87.605469 156.433594 89.046875 157.230469 Z M 82.75 166.992188 C 82.722656 166.957031 82.695312 166.929688 82.675781 166.902344 C 82.71875 166.886719 82.761719 166.867188 82.808594 166.84375 C 82.789062 166.894531 82.765625 166.941406 82.75 166.992188 Z M 78.355469 178.148438 C 79.140625 176.648438 79.472656 174.988281 79.339844 173.273438 C 80.640625 172.652344 81.777344 171.871094 82.726562 170.945312 C 83.632812 172.589844 84.226562 174.347656 84.476562 176.097656 C 82.65625 176.890625 80.644531 177.566406 78.355469 178.148438 Z M 53.210938 181.214844 C 55.527344 181.65625 57.566406 181.949219 59.433594 182.097656 C 60.726562 182.207031 62.019531 182.226562 63.414062 182.238281 C 63.285156 182.320312 63.144531 182.40625 63 182.480469 C 60.101562 184.042969 56.320312 184.542969 52.320312 183.886719 C 52.320312 183.097656 52.515625 182.121094 53.210938 181.214844 Z M 38.792969 171.335938 C 39.253906 172.414062 39.765625 173.332031 40.359375 174.121094 C 40.53125 174.347656 40.71875 174.570312 40.917969 174.789062 C 40.097656 174.371094 39.332031 173.949219 38.617188 173.503906 C 38.496094 172.707031 38.425781 171.972656 38.40625 171.289062 C 38.535156 171.292969 38.664062 171.308594 38.792969 171.335938 Z M 33.785156 138.0625 C 35.722656 137.210938 37.605469 136.902344 39.332031 137.148438 C 38.945312 137.984375 38.703125 138.902344 38.621094 139.898438 C 37.246094 140.089844 35.9375 140.394531 34.71875 140.804688 C 34.148438 140.011719 33.644531 139.191406 33.214844 138.355469 C 33.398438 138.253906 33.585938 138.152344 33.785156 138.0625 Z M 66.042969 145.746094 C 65.847656 146.007812 65.683594 146.285156 65.53125 146.578125 C 65.4375 146.210938 65.332031 145.84375 65.210938 145.476562 C 65.816406 145.378906 66.355469 145.183594 66.824219 144.886719 C 66.550781 145.136719 66.285156 145.425781 66.042969 145.746094 Z M 78.363281 157.585938 C 78.242188 157.289062 78.082031 157.011719 77.914062 156.734375 C 78.238281 156.539062 78.5625 156.320312 78.902344 156.066406 C 79.582031 155.875 80.335938 155.753906 81.195312 155.691406 C 82.691406 158.925781 83.40625 161.625 83.375 163.914062 C 82.527344 164.394531 81.664062 164.792969 80.789062 165.105469 C 80.019531 164.460938 79.1875 163.871094 78.296875 163.347656 C 79.195312 161.558594 79.21875 159.628906 78.363281 157.585938 Z M 80.003906 170.332031 C 79.667969 170.5625 79.28125 170.746094 78.871094 170.9375 C 78.550781 169.941406 78.085938 168.972656 77.5 168.054688 C 77.640625 168.058594 77.765625 168.054688 77.910156 168.046875 C 78.609375 168.015625 79.359375 167.898438 80.25 167.679688 C 80.289062 167.707031 80.328125 167.734375 80.359375 167.769531 C 80.472656 167.855469 80.589844 167.933594 80.6875 168.046875 C 80.964844 168.339844 81.226562 168.664062 81.503906 169.027344 C 81.066406 169.511719 80.574219 169.9375 80.003906 170.332031 Z M 77.132812 174.144531 C 76.992188 175.941406 76.148438 177.652344 74.742188 178.960938 C 72.730469 179.363281 70.667969 179.648438 68.605469 179.820312 C 69.367188 178.386719 69.832031 176.789062 69.972656 175.039062 C 72.460938 175.109375 74.945312 174.816406 77.132812 174.144531 Z M 59.289062 176.621094 C 58.882812 176.203125 58.484375 175.765625 58.078125 175.28125 C 58.144531 175.214844 58.214844 175.140625 58.273438 175.058594 C 59.125 173.894531 59.675781 172.636719 59.910156 171.308594 C 61.851562 173.203125 64.601562 174.460938 67.800781 174.894531 C 67.667969 176.765625 67.050781 178.460938 66.011719 179.863281 C 64.828125 177.863281 62.375 176.667969 59.289062 176.621094 Z M 52.675781 178.585938 C 52.589844 178.648438 52.515625 178.710938 52.433594 178.773438 C 52.320312 178.753906 52.207031 178.726562 52.09375 178.703125 C 52.289062 178.664062 52.484375 178.628906 52.675781 178.585938 Z M 56.472656 176.902344 C 56.40625 176.917969 56.347656 176.933594 56.289062 176.945312 C 56.332031 176.910156 56.378906 176.878906 56.417969 176.839844 C 56.4375 176.863281 56.453125 176.882812 56.472656 176.902344 Z M 40.558594 169.625 C 40.558594 169.621094 40.550781 169.609375 40.546875 169.597656 C 40.542969 169.585938 40.535156 169.574219 40.53125 169.566406 C 43.804688 169.507812 46.84375 168.824219 48.882812 168.242188 C 49.738281 168 50.621094 167.699219 51.59375 167.332031 C 52.261719 169.980469 53.433594 172.582031 55.015625 174.917969 C 54.289062 175.523438 53.5625 175.929688 52.738281 176.1875 C 50.152344 176.988281 47.445312 176.652344 45.042969 175.207031 C 44.566406 172.949219 42.847656 170.789062 40.585938 169.640625 C 40.574219 169.636719 40.5625 169.628906 40.558594 169.625 Z M 34.804688 169.777344 C 35.03125 169.855469 35.273438 169.925781 35.539062 169.96875 C 35.253906 170.195312 35.003906 170.457031 34.800781 170.753906 C 34.4375 170.441406 34.082031 170.121094 33.730469 169.792969 C 34.109375 169.808594 34.460938 169.804688 34.804688 169.777344 Z M 30.519531 163.972656 C 28.507812 161.738281 28.421875 159.070312 28.730469 157.175781 C 28.75 157.152344 28.769531 157.125 28.789062 157.097656 C 28.945312 158.523438 29.273438 160.007812 29.753906 161.542969 L 29.945312 162.160156 C 30.109375 162.714844 30.300781 163.332031 30.519531 163.972656 Z M 37.082031 166.175781 C 36.957031 166.449219 36.839844 166.738281 36.730469 167.039062 C 35.9375 166.902344 35.128906 166.6875 34.335938 166.402344 C 33.652344 165.371094 33.15625 164.207031 33.050781 163.972656 C 31.636719 160.5625 30.949219 157.492188 31.011719 154.828125 C 31.617188 154.417969 32.441406 154.046875 33.214844 154.160156 C 33.855469 154.261719 34.445312 154.699219 34.972656 155.460938 C 36.386719 157.5 36.710938 160.949219 36.949219 163.492188 C 36.964844 163.683594 36.992188 163.886719 37.019531 164.113281 C 37.09375 164.738281 37.175781 165.441406 37.136719 166.039062 Z M 44.152344 139.601562 C 44.152344 139.597656 44.152344 139.589844 44.15625 139.589844 C 44.226562 139.65625 44.292969 139.722656 44.363281 139.792969 C 44.28125 139.78125 44.210938 139.773438 44.128906 139.769531 C 44.125 139.730469 44.125 139.699219 44.125 139.667969 Z M 62.796875 145.382812 C 62.945312 145.765625 63.074219 146.160156 63.195312 146.566406 C 62.6875 146.269531 62.207031 146.015625 61.742188 145.789062 C 61.339844 145.589844 60.90625 145.398438 60.441406 145.210938 C 60.578125 145.027344 60.710938 144.847656 60.835938 144.664062 C 61.453125 144.988281 62.121094 145.230469 62.796875 145.382812 Z M 62.152344 136.390625 C 63.136719 137.042969 64.019531 137.808594 64.769531 138.675781 L 64.898438 138.820312 C 65.253906 139.226562 66.042969 140.117188 66.1875 140.675781 L 64.664062 143.261719 C 64.550781 143.277344 64.429688 143.289062 64.3125 143.292969 C 63.820312 142.246094 63.296875 141.328125 62.707031 140.5 C 62.644531 140.402344 62.570312 140.304688 62.492188 140.207031 C 62.636719 138.917969 62.523438 137.636719 62.152344 136.390625 Z M 76.527344 154.527344 C 74.390625 151.832031 71.09375 149.765625 67.148438 148.632812 C 67.183594 148.503906 67.21875 148.378906 67.273438 148.261719 C 67.851562 146.894531 68.789062 146.054688 70.054688 145.765625 C 71.839844 145.367188 74.246094 146.15625 76.042969 147.746094 C 77.632812 149.152344 78.765625 150.980469 79.59375 152.492188 C 79.425781 152.722656 79.246094 152.949219 79.058594 153.160156 C 78.832031 153.410156 78.574219 153.625 78.238281 153.90625 C 77.613281 154.078125 77.050781 154.285156 76.527344 154.527344 Z M 76.640625 165.566406 C 76.761719 165.453125 76.875 165.332031 76.980469 165.21875 C 77.25 165.375 77.519531 165.550781 77.796875 165.734375 C 77.398438 165.722656 77.007812 165.667969 76.640625 165.566406 Z M 70.007812 172.804688 C 69.941406 171.863281 69.777344 170.902344 69.53125 169.933594 C 71.039062 169.402344 72.675781 168.5625 74.222656 167.503906 C 74.902344 168.160156 75.417969 168.765625 75.820312 169.382812 C 76.332031 170.144531 76.695312 170.964844 76.917969 171.828125 C 74.800781 172.578125 72.453125 172.910156 70.007812 172.804688 Z M 38.171875 144.683594 C 38.511719 144.503906 38.875 144.335938 39.234375 144.175781 C 39.257812 144.234375 39.277344 144.289062 39.300781 144.347656 C 38.921875 144.449219 38.546875 144.5625 38.171875 144.683594 Z M 42.925781 150.628906 L 42.863281 150.839844 L 42.742188 150.898438 Z M 46.152344 147.800781 L 46.089844 147.628906 C 45.835938 146.960938 45.585938 146.296875 45.386719 145.617188 L 45.34375 145.464844 C 46.0625 145.398438 46.816406 145.351562 47.671875 145.324219 C 48 146.242188 48.261719 147.207031 48.457031 148.191406 C 47.675781 148.15625 46.898438 148.023438 46.152344 147.800781 Z M 59.746094 153.507812 C 59.417969 152.933594 58.96875 152.464844 58.402344 152.097656 C 57.351562 151.417969 56.027344 151.175781 54.664062 151.175781 C 53.496094 151.175781 52.292969 151.351562 51.226562 151.589844 C 51.214844 151.164062 51.1875 150.738281 51.160156 150.300781 C 53.121094 150.035156 55.007812 149.40625 56.679688 148.445312 C 57.980469 149.929688 59.023438 151.570312 59.785156 153.339844 C 59.773438 153.394531 59.761719 153.449219 59.746094 153.507812 Z M 62.804688 155.144531 C 62.636719 154.503906 62.445312 153.894531 62.222656 153.316406 C 62.375 152.207031 62.292969 151.089844 61.996094 149.988281 C 62.550781 150.019531 63.128906 150.078125 63.738281 150.171875 C 63.765625 151.886719 63.449219 153.570312 62.804688 155.144531 Z M 76.402344 162.292969 L 76.398438 162.292969 C 76.398438 162.300781 76.398438 162.304688 76.394531 162.3125 C 75.707031 161.992188 75.015625 161.710938 74.332031 161.46875 C 74.308594 161.035156 74.261719 160.605469 74.1875 160.179688 C 74.472656 159.273438 74.996094 158.496094 75.828125 157.738281 C 75.855469 157.734375 75.886719 157.722656 75.914062 157.710938 C 76.855469 159.402344 77.019531 160.941406 76.402344 162.292969 Z M 62.742188 169.339844 C 63.300781 169.953125 64.042969 170.347656 64.878906 170.492188 C 65.628906 170.625 66.460938 170.625 67.359375 170.492188 C 67.527344 171.164062 67.652344 171.855469 67.726562 172.554688 C 67.371094 172.519531 67.019531 172.476562 66.691406 172.398438 C 63.960938 171.761719 61.738281 170.375 60.46875 168.539062 C 61.230469 168.875 61.984375 169.140625 62.742188 169.339844 Z M 55.628906 165.5 C 56.0625 165.851562 56.503906 166.191406 56.957031 166.515625 C 57.878906 168.824219 57.722656 171.308594 56.566406 173.226562 C 56.453125 173.058594 56.347656 172.890625 56.246094 172.71875 C 55.617188 171.671875 54.449219 169.210938 53.675781 166.484375 C 54.300781 166.195312 54.953125 165.875 55.628906 165.5 Z M 45.257812 156.214844 C 45.484375 156.078125 45.726562 155.972656 45.96875 155.859375 C 46.003906 155.851562 46.039062 155.832031 46.066406 155.816406 C 46.730469 156.410156 47.460938 156.945312 48.242188 157.410156 C 48.171875 157.691406 48.089844 157.964844 47.992188 158.230469 C 47.921875 158.417969 47.835938 158.601562 47.746094 158.773438 C 45.226562 158.867188 42.839844 159.703125 40.902344 161.144531 C 41.816406 159.140625 43.308594 157.4375 45.257812 156.214844 Z M 48.753906 152.269531 L 48.609375 152.195312 C 48.355469 152.066406 48.101562 151.9375 47.847656 151.796875 C 47.617188 151.328125 47.363281 150.8125 47.121094 150.285156 C 47.664062 150.359375 48.21875 150.410156 48.792969 150.425781 C 48.863281 151.050781 48.898438 151.648438 48.90625 152.21875 C 48.855469 152.238281 48.804688 152.253906 48.753906 152.269531 Z M 51.113281 165.070312 C 48.992188 165.898438 46.914062 166.488281 44.933594 166.828125 C 44.382812 166.921875 43.816406 167 43.25 167.066406 C 45.742188 165.59375 47.75 163.613281 49.050781 161.316406 C 49.101562 161.226562 49.148438 161.132812 49.191406 161.035156 C 49.695312 161.089844 50.222656 161.1875 50.800781 161.34375 C 50.734375 162.667969 50.917969 164.015625 51.113281 165.070312 Z M 48.96875 157.101562 L 48.96875 157.105469 Z M 54.746094 146.804688 C 53.578125 147.390625 52.257812 147.808594 50.898438 148.035156 C 50.730469 147.128906 50.519531 146.230469 50.25 145.351562 C 51.382812 145.40625 52.554688 145.523438 53.746094 145.71875 C 54.195312 146.054688 54.597656 146.375 54.960938 146.683594 C 54.890625 146.726562 54.820312 146.765625 54.746094 146.804688 Z M 53.175781 156.6875 C 53.085938 156.742188 53.007812 156.789062 52.921875 156.847656 C 52.179688 156.707031 51.480469 156.503906 50.835938 156.238281 C 50.871094 156.078125 50.898438 155.914062 50.929688 155.757812 C 51.175781 155.882812 51.429688 156.007812 51.691406 156.113281 C 52.21875 156.335938 52.703125 156.523438 53.175781 156.6875 Z M 60.976562 163.039062 C 60.816406 164.023438 60.570312 164.972656 60.253906 165.878906 C 60.042969 165.765625 59.832031 165.648438 59.621094 165.523438 C 59.6875 164.734375 59.996094 163.769531 60.976562 163.039062 Z M 53.308594 159.867188 C 53.40625 159.632812 53.523438 159.433594 53.660156 159.253906 C 55.246094 159.386719 56.871094 159.152344 58.257812 158.589844 C 58.90625 158.808594 59.476562 159.082031 60.003906 159.40625 C 59.832031 159.605469 59.648438 159.800781 59.453125 159.984375 C 58.628906 160.777344 57.683594 161.535156 56.648438 162.242188 C 55.660156 161.261719 54.523438 160.453125 53.308594 159.867188 Z M 55.628906 155.097656 C 55.246094 155.011719 54.867188 154.910156 54.472656 154.769531 C 53.671875 154.511719 52.839844 154.199219 51.964844 153.835938 C 52.769531 153.691406 53.472656 153.609375 54.140625 153.582031 C 54.425781 153.566406 54.679688 153.550781 54.910156 153.527344 C 55.949219 153.441406 55.96875 153.441406 56.136719 154.566406 L 56.191406 154.738281 C 56.335938 155.039062 56.40625 155.238281 56.433594 155.371094 C 56.289062 155.34375 56.035156 155.265625 55.628906 155.097656 Z M 53.777344 163.875 C 53.566406 163.988281 53.359375 164.109375 53.148438 164.214844 C 53.078125 163.820312 53.027344 163.449219 52.996094 163.082031 C 53.261719 163.363281 53.519531 163.621094 53.777344 163.875 Z M 71.257812 158.160156 C 71.535156 158.800781 71.746094 159.414062 71.898438 160.011719 C 71.839844 160.25 71.796875 160.492188 71.757812 160.734375 C 71.433594 160.648438 71.117188 160.5625 70.785156 160.496094 C 69.238281 160.183594 67.058594 159.746094 64.921875 159.746094 C 64.523438 159.746094 64.128906 159.761719 63.738281 159.800781 C 63.679688 159.742188 63.617188 159.683594 63.546875 159.621094 L 63.496094 159.578125 C 63.480469 159.347656 63.464844 159.125 63.441406 158.898438 L 63.433594 158.796875 C 63.703125 158.414062 63.976562 158.023438 64.207031 157.621094 C 64.910156 156.398438 65.40625 155.09375 65.710938 153.71875 C 65.972656 154.261719 66.296875 154.777344 66.675781 155.246094 C 67.941406 156.820312 69.480469 157.804688 71.257812 158.160156 Z M 73.996094 155.207031 C 74.1875 155.390625 74.359375 155.589844 74.535156 155.796875 C 74.511719 155.824219 74.472656 155.851562 74.441406 155.875 C 73.847656 156 73.289062 156.058594 72.675781 156.007812 C 71.996094 154.722656 71.148438 153.484375 70.144531 152.304688 C 71.570312 153.097656 72.871094 154.078125 73.996094 155.207031 Z M 74.957031 164.207031 C 74.902344 164.257812 74.84375 164.3125 74.785156 164.367188 C 74.695312 164.257812 74.605469 164.140625 74.527344 164.011719 C 74.671875 164.074219 74.8125 164.136719 74.957031 164.207031 Z M 67.121094 164.195312 C 67.558594 164.195312 68.039062 164.238281 68.515625 164.328125 C 69.351562 164.484375 70.21875 164.804688 71.164062 165.300781 C 70.542969 166.074219 69.660156 166.683594 68.597656 167.066406 C 68.1875 166.132812 67.6875 165.171875 67.101562 164.195312 C 67.105469 164.195312 67.113281 164.195312 67.121094 164.195312 Z M 66.085938 167.523438 C 65.898438 167.523438 65.710938 167.503906 65.519531 167.476562 L 65.402344 167.464844 C 65.304688 167.351562 65.210938 167.238281 65.082031 167.070312 L 64.15625 165.890625 C 64.332031 165.507812 64.585938 165.199219 64.933594 164.941406 C 65.457031 165.804688 65.929688 166.6875 66.3125 167.519531 C 66.242188 167.523438 66.199219 167.519531 66.085938 167.523438 Z M 63.609375 162.984375 C 63.476562 163.078125 63.351562 163.175781 63.242188 163.277344 C 63.273438 163.0625 63.300781 162.851562 63.335938 162.632812 C 63.425781 162.746094 63.511719 162.867188 63.609375 162.984375 Z M 60.425781 157.222656 C 60.582031 157.074219 60.726562 156.925781 60.859375 156.765625 C 60.917969 157.03125 60.960938 157.296875 61.007812 157.5625 C 60.816406 157.441406 60.625 157.328125 60.425781 157.222656 Z M 44.296875 149.492188 C 44.335938 149.503906 44.363281 149.519531 44.394531 149.527344 C 44.417969 149.59375 44.441406 149.660156 44.46875 149.71875 C 44.4375 149.695312 44.398438 149.675781 44.367188 149.652344 C 44.347656 149.597656 44.324219 149.546875 44.296875 149.492188 Z M 40.488281 164.425781 C 41.90625 162.703125 44.03125 161.554688 46.441406 161.171875 C 44.902344 163.316406 42.640625 165.0625 39.910156 166.195312 C 39.898438 165.90625 39.898438 165.613281 39.910156 165.332031 L 40.007812 165.167969 C 40.152344 164.914062 40.292969 164.660156 40.488281 164.425781 Z M 44.554688 142.597656 C 45.160156 142.492188 45.722656 142.425781 46.257812 142.382812 C 46.277344 142.382812 46.289062 142.386719 46.308594 142.394531 C 46.457031 142.636719 46.585938 142.878906 46.714844 143.128906 C 46.03125 143.171875 45.371094 143.230469 44.722656 143.304688 C 44.664062 143.066406 44.609375 142.835938 44.554688 142.597656 Z M 40.035156 146.429688 C 40.125 146.398438 40.222656 146.367188 40.320312 146.332031 C 40.5625 146.671875 40.839844 147.003906 41.15625 147.328125 C 40.753906 147.011719 40.378906 146.714844 40.035156 146.429688 Z M 36.96875 142.699219 C 36.792969 142.792969 36.617188 142.878906 36.445312 142.976562 C 36.414062 142.945312 36.386719 142.90625 36.347656 142.875 C 36.558594 142.8125 36.765625 142.753906 36.96875 142.699219 Z M 31.332031 152.226562 C 31.445312 151.832031 31.589844 151.417969 31.769531 150.96875 C 32.398438 150.273438 32.960938 149.753906 33.527344 149.351562 C 34.59375 148.574219 35.886719 147.910156 37.5625 147.265625 C 39.042969 148.589844 40.726562 149.890625 42.570312 151.152344 L 42.585938 151.125 C 43.109375 152.238281 43.617188 153.089844 44.167969 153.808594 C 44.253906 153.921875 44.339844 154.023438 44.4375 154.128906 C 43.839844 154.453125 43.335938 154.769531 42.960938 155.054688 C 41.179688 156.382812 39.78125 158.171875 38.867188 160.25 C 38.484375 157.5 37.71875 154.488281 35.71875 152.902344 C 34.914062 152.265625 33.996094 151.945312 33.003906 151.945312 C 32.457031 151.945312 31.902344 152.042969 31.332031 152.226562 Z M 58.398438 178.855469 C 58.773438 179.191406 59.183594 179.519531 59.621094 179.84375 C 59.152344 179.808594 58.679688 179.765625 58.191406 179.714844 C 57.4375 179.636719 56.671875 179.539062 55.90625 179.425781 C 56.679688 179.125 57.523438 178.929688 58.398438 178.855469 Z M 40.953125 139.695312 C 41.058594 138.996094 41.28125 138.367188 41.609375 137.808594 C 41.707031 137.859375 41.804688 137.90625 41.894531 137.960938 C 41.863281 138.351562 41.859375 138.734375 41.863281 139.074219 C 41.78125 139.277344 41.710938 139.476562 41.636719 139.679688 C 41.410156 139.679688 41.179688 139.683594 40.953125 139.695312 Z M 60.125 140.8125 C 60.125 140.828125 60.125 140.84375 60.125 140.859375 C 60.117188 140.929688 60.117188 141 60.101562 141.042969 C 60.085938 141.109375 60.066406 141.171875 60.042969 141.234375 C 59.316406 140.507812 58.671875 139.636719 58.132812 138.65625 C 58.84375 139.316406 59.507812 140.035156 60.125 140.8125 Z M 27.039062 168.546875 C 26.964844 168.058594 26.894531 167.558594 26.847656 167.027344 C 27.789062 167.882812 28.875 168.554688 30.042969 169.03125 C 31.292969 170.5 32.667969 171.832031 34.136719 173 C 34.152344 174.640625 35.214844 176.449219 37.378906 178.507812 C 37.617188 179.277344 37.886719 180.019531 38.195312 180.738281 C 37.359375 180.851562 36.546875 180.820312 35.816406 180.65625 C 29.269531 179.164062 27.445312 171.007812 27.039062 168.546875 Z M 91.648438 156.332031 C 92.425781 151.773438 90.910156 146.597656 87.644531 142.726562 C 86.6875 141.59375 85.5625 140.515625 84.292969 139.527344 C 83.46875 135.894531 81.628906 132.554688 78.957031 129.847656 C 73.628906 124.46875 64.390625 121.195312 57.789062 125.714844 C 56.859375 126.347656 56.132812 127.160156 55.53125 128.242188 C 55.007812 127.867188 54.519531 127.554688 54.070312 127.285156 C 48.59375 124.058594 42.070312 123.140625 36.175781 124.765625 C 33.207031 125.585938 31.234375 126.902344 30.148438 128.78125 C 28.933594 130.890625 28.949219 133.589844 30.199219 137.050781 C 30.234375 137.15625 30.285156 137.265625 30.332031 137.367188 C 26.5625 140.09375 24.21875 145.039062 23.875 151.039062 C 22.675781 154.070312 22.375 157.203125 23 160.113281 C 23.296875 161.496094 23.785156 162.800781 24.457031 164 C 24.433594 164.894531 24.460938 165.8125 24.542969 166.738281 C 25.238281 174.660156 29.566406 183.113281 37.4375 183.113281 C 37.507812 183.113281 37.578125 183.113281 37.648438 183.109375 C 38.152344 183.101562 38.675781 183.03125 39.226562 182.914062 C 41.351562 186.761719 44.285156 189.371094 47.734375 190.464844 C 49.554688 191.046875 52.007812 191.300781 54.535156 191.242188 C 56.363281 192.328125 58.679688 193.078125 61.410156 193.460938 C 62.632812 193.640625 63.949219 193.730469 65.300781 193.730469 C 72.042969 193.730469 79.875 191.476562 84.175781 185.949219 C 85.972656 183.636719 86.867188 180.710938 86.769531 177.46875 C 91.46875 175.128906 94.308594 172.03125 95.453125 168.003906 C 96.683594 163.6875 95.191406 159.148438 91.648438 156.332031 " fill-opacity="1" fill-rule="nonzero"/><path fill="#ffffff" d="M 236.652344 92.921875 C 236.746094 92.566406 236.808594 92.199219 236.855469 91.839844 C 239.199219 90.21875 241 88.125 241.949219 85.910156 C 242.03125 85.738281 242.09375 85.566406 242.15625 85.386719 C 243.660156 86.882812 244.539062 88.859375 244.648438 91.035156 C 244.789062 93.953125 243.542969 96.980469 241.308594 99.15625 C 240.375 100.0625 239.242188 100.863281 237.707031 101.6875 C 237.332031 99.59375 236.542969 97.546875 235.398438 95.699219 C 236.007812 94.757812 236.414062 93.867188 236.652344 92.921875 Z M 217.90625 110.269531 C 217.925781 110.125 217.929688 109.984375 217.9375 109.851562 C 221.417969 110.578125 224.53125 109.902344 226.996094 107.847656 C 227.09375 107.765625 227.179688 107.6875 227.261719 107.597656 L 227.277344 107.589844 C 229.3125 107.152344 231.15625 106.660156 232.925781 106.082031 C 233.855469 105.78125 234.785156 105.441406 235.707031 105.0625 C 235.648438 106.429688 235.382812 107.679688 234.917969 108.792969 C 232.441406 114.734375 224.902344 116.882812 221.773438 117.53125 C 218.351562 118.242188 213.707031 118.488281 209.878906 117.335938 C 214.628906 116.296875 217.511719 113.785156 217.90625 110.269531 Z M 213.089844 112.003906 C 213.820312 111.746094 214.519531 111.421875 215.210938 111.011719 C 214.769531 112.175781 213.875 113.214844 212.707031 113.828125 C 211.0625 114.703125 208.839844 115.253906 206.101562 115.464844 L 206.007812 115.394531 C 205.800781 115.246094 205.589844 115.101562 205.414062 114.929688 C 204.8125 114.355469 204.324219 113.640625 203.984375 112.847656 C 207.238281 113.265625 210.300781 112.988281 213.089844 112.003906 Z M 192.867188 108.570312 C 195.527344 110.382812 198.5 111.707031 201.5 112.417969 C 201.722656 113.402344 202.050781 114.226562 202.5 114.933594 C 202.617188 115.128906 202.746094 115.300781 202.886719 115.476562 C 198.359375 115.070312 194.761719 112.710938 192.601562 108.710938 C 192.6875 108.667969 192.78125 108.621094 192.867188 108.570312 Z M 193.699219 104.59375 C 193.507812 105.019531 193.226562 105.40625 192.867188 105.757812 C 192.179688 105.230469 191.519531 104.699219 190.914062 104.117188 L 190.601562 103.828125 C 190.507812 103.523438 190.417969 103.226562 190.339844 102.9375 C 191.449219 103.546875 192.570312 104.101562 193.699219 104.59375 Z M 182.464844 66.125 C 182.847656 66.851562 183.277344 67.574219 183.769531 68.296875 C 182.15625 69.058594 180.738281 69.992188 179.539062 71.074219 C 178.988281 71.5625 178.46875 72.097656 177.984375 72.679688 C 178.707031 70.382812 180.039062 67.941406 182.464844 66.125 Z M 205.667969 57.585938 C 203.921875 57.671875 202.234375 57.863281 200.632812 58.144531 C 199.683594 58.316406 198.738281 58.5625 197.960938 58.847656 C 195.515625 59.160156 193.367188 60.203125 191.875 61.800781 C 190.523438 61.488281 189.074219 61.425781 187.566406 61.609375 C 186.121094 61.789062 184.734375 62.195312 183.429688 62.820312 C 183.082031 61.84375 182.863281 60.914062 182.75 59.980469 C 182.539062 58.222656 182.980469 56.746094 184.066406 55.621094 C 186.429688 53.164062 191.398438 52.625 194.917969 52.910156 C 198.777344 53.21875 202.617188 54.640625 205.769531 56.941406 C 205.726562 57.15625 205.691406 57.375 205.667969 57.585938 Z M 222.003906 59.722656 C 218.152344 58.542969 214.109375 57.847656 209.992188 57.644531 C 209.53125 57.164062 209.011719 56.675781 208.414062 56.179688 C 208.46875 56.035156 208.519531 55.898438 208.585938 55.796875 C 211.742188 50.851562 219.789062 52.265625 224.230469 54.773438 C 228.074219 56.953125 231.042969 60.34375 232.566406 64.25 C 229.640625 62.480469 226.164062 60.988281 222.003906 59.722656 Z M 239.824219 81.167969 C 238 80.4375 235.855469 80.015625 233.742188 79.96875 C 233.628906 79.746094 233.515625 79.527344 233.398438 79.308594 L 233.351562 79.230469 C 233.785156 78.585938 234.15625 77.929688 234.445312 77.269531 C 235.507812 74.847656 235.980469 72.25 235.855469 69.523438 C 237.40625 71.023438 238.59375 72.671875 239.378906 74.425781 L 239.386719 74.425781 C 240.421875 76.703125 240.859375 79.191406 240.648438 81.539062 C 240.363281 81.398438 240.097656 81.273438 239.824219 81.167969 Z M 195.792969 105.46875 C 197.734375 106.191406 199.804688 106.804688 202.078125 107.328125 C 201.625 108.167969 201.355469 109.082031 201.28125 110.042969 C 200.949219 109.957031 200.625 109.859375 200.296875 109.757812 C 198.347656 109.148438 196.464844 108.261719 194.695312 107.117188 C 195.148438 106.621094 195.515625 106.066406 195.792969 105.46875 Z M 185.253906 70.316406 C 185.394531 70.484375 185.535156 70.652344 185.679688 70.820312 C 183.472656 72.390625 181.878906 74.226562 180.898438 76.375 C 179.851562 77.550781 179.027344 78.882812 178.449219 80.339844 C 178.144531 81.097656 177.914062 81.9375 177.742188 82.914062 C 177.6875 83 177.632812 83.089844 177.578125 83.175781 C 177.261719 81.492188 177.109375 79.753906 177.144531 78.078125 C 178.566406 74.738281 181.4375 71.996094 185.253906 70.316406 Z M 209.375 70.835938 C 207.042969 68.730469 203.988281 67.207031 201.285156 66.820312 C 200.519531 66.710938 199.699219 66.652344 198.851562 66.652344 C 198.164062 65.695312 197.40625 64.859375 196.574219 64.164062 C 197.746094 62.792969 199.375 61.777344 201.34375 61.210938 L 201.585938 61.238281 C 201.878906 61.269531 202.164062 61.304688 202.449219 61.378906 C 203.617188 61.679688 204.792969 62.160156 205.941406 62.808594 C 206.675781 65.554688 208.222656 68.148438 210.160156 69.894531 C 209.941406 70.203125 209.679688 70.515625 209.375 70.835938 Z M 211.203125 63.980469 C 210.167969 62.972656 209.027344 62.0625 207.847656 61.3125 C 207.820312 61.179688 207.808594 61.050781 207.792969 60.917969 C 208.625 61.054688 209.421875 61.253906 210.167969 61.511719 C 210.640625 62.3125 210.992188 63.144531 211.203125 63.980469 Z M 226.230469 70.960938 C 225.03125 70.351562 223.613281 69.960938 222.199219 69.960938 C 220.9375 69.960938 219.679688 70.273438 218.601562 70.996094 C 218.839844 70.769531 219.042969 70.515625 219.226562 70.226562 C 221.332031 66.808594 217.023438 62.996094 215.648438 61.914062 C 214.757812 61.207031 213.707031 60.578125 212.507812 60.027344 C 217.835938 60.617188 223.320312 62.1875 228.449219 64.59375 C 230.167969 65.398438 231.863281 66.410156 233.472656 67.589844 C 233.984375 70.847656 233.488281 74.175781 232.105469 76.929688 C 230.875 74.871094 229.015625 72.382812 226.230469 70.960938 Z M 240.199219 83.832031 C 239.609375 85.839844 238.535156 87.519531 236.996094 88.824219 C 236.957031 88.859375 236.921875 88.890625 236.878906 88.921875 C 236.640625 86.628906 235.808594 84.40625 234.855469 82.300781 C 236.828125 82.484375 238.761719 83.035156 240.199219 83.832031 Z M 233.898438 93.59375 C 233.875 93.558594 233.851562 93.53125 233.824219 93.507812 C 233.871094 93.488281 233.914062 93.46875 233.957031 93.445312 C 233.9375 93.496094 233.921875 93.542969 233.898438 93.59375 Z M 229.511719 104.75 C 230.292969 103.25 230.628906 101.589844 230.488281 99.875 C 231.792969 99.253906 232.925781 98.476562 233.875 97.546875 C 234.785156 99.195312 235.378906 100.949219 235.625 102.703125 C 233.8125 103.492188 231.800781 104.167969 229.511719 104.75 Z M 204.359375 107.816406 C 206.679688 108.261719 208.71875 108.550781 210.582031 108.699219 C 211.878906 108.808594 213.167969 108.832031 214.570312 108.839844 C 214.433594 108.925781 214.300781 109.007812 214.148438 109.082031 C 211.257812 110.644531 207.472656 111.144531 203.476562 110.488281 C 203.476562 109.699219 203.664062 108.722656 204.359375 107.816406 Z M 189.949219 97.9375 C 190.40625 99.015625 190.914062 99.933594 191.511719 100.722656 C 191.683594 100.949219 191.867188 101.171875 192.066406 101.390625 C 191.25 100.976562 190.480469 100.550781 189.765625 100.105469 C 189.644531 99.308594 189.574219 98.574219 189.558594 97.890625 C 189.683594 97.894531 189.8125 97.910156 189.949219 97.9375 Z M 184.941406 64.664062 C 186.871094 63.8125 188.753906 63.511719 190.488281 63.753906 C 190.09375 64.589844 189.851562 65.507812 189.773438 66.5 C 188.398438 66.691406 187.085938 66.996094 185.867188 67.40625 C 185.296875 66.613281 184.792969 65.792969 184.363281 64.957031 C 184.550781 64.855469 184.734375 64.753906 184.941406 64.664062 Z M 217.199219 72.347656 C 217.003906 72.609375 216.832031 72.886719 216.683594 73.179688 C 216.589844 72.8125 216.484375 72.445312 216.367188 72.078125 C 216.972656 71.980469 217.511719 71.785156 217.980469 71.488281 C 217.703125 71.738281 217.433594 72.027344 217.199219 72.347656 Z M 229.515625 84.1875 C 229.394531 83.890625 229.230469 83.613281 229.070312 83.335938 C 229.386719 83.140625 229.710938 82.921875 230.050781 82.667969 C 230.738281 82.476562 231.488281 82.355469 232.351562 82.292969 C 233.839844 85.527344 234.558594 88.226562 234.53125 90.515625 C 233.683594 90.996094 232.8125 91.394531 231.941406 91.707031 C 231.171875 91.0625 230.335938 90.472656 229.453125 89.949219 C 230.347656 88.164062 230.375 86.230469 229.515625 84.1875 Z M 231.15625 96.933594 C 230.824219 97.164062 230.429688 97.347656 230.023438 97.539062 C 229.699219 96.542969 229.242188 95.574219 228.648438 94.65625 C 228.792969 94.660156 228.917969 94.65625 229.058594 94.648438 C 229.757812 94.617188 230.515625 94.5 231.40625 94.28125 C 231.4375 94.308594 231.480469 94.335938 231.511719 94.371094 C 231.625 94.457031 231.746094 94.535156 231.84375 94.648438 C 232.113281 94.941406 232.375 95.265625 232.65625 95.628906 C 232.214844 96.113281 231.722656 96.539062 231.15625 96.933594 Z M 228.28125 100.75 C 228.144531 102.542969 227.304688 104.253906 225.894531 105.566406 C 223.878906 105.964844 221.816406 106.25 219.761719 106.421875 C 220.523438 104.988281 220.980469 103.390625 221.125 101.640625 C 223.609375 101.710938 226.097656 101.417969 228.28125 100.75 Z M 210.441406 103.222656 C 210.035156 102.8125 209.636719 102.367188 209.234375 101.882812 C 209.296875 101.820312 209.363281 101.742188 209.421875 101.660156 C 210.28125 100.496094 210.824219 99.238281 211.0625 97.910156 C 213.003906 99.804688 215.757812 101.0625 218.957031 101.496094 C 218.816406 103.367188 218.207031 105.0625 217.160156 106.464844 C 215.976562 104.464844 213.527344 103.269531 210.441406 103.222656 Z M 203.828125 105.1875 C 203.746094 105.25 203.664062 105.3125 203.589844 105.375 C 203.476562 105.355469 203.363281 105.328125 203.25 105.304688 C 203.441406 105.269531 203.632812 105.230469 203.828125 105.1875 Z M 207.625 103.507812 C 207.558594 103.519531 207.5 103.535156 207.4375 103.546875 C 207.480469 103.511719 207.527344 103.480469 207.570312 103.449219 C 207.585938 103.464844 207.601562 103.488281 207.625 103.507812 Z M 191.707031 96.226562 C 191.707031 96.222656 191.703125 96.210938 191.695312 96.203125 C 191.691406 96.1875 191.691406 96.179688 191.683594 96.167969 C 194.960938 96.109375 198 95.425781 200.03125 94.84375 C 200.886719 94.601562 201.777344 94.300781 202.746094 93.933594 C 203.417969 96.582031 204.582031 99.183594 206.167969 101.523438 C 205.445312 102.125 204.710938 102.535156 203.890625 102.789062 C 201.304688 103.589844 198.59375 103.253906 196.191406 101.808594 C 195.722656 99.550781 194 97.390625 191.738281 96.242188 C 191.726562 96.238281 191.71875 96.230469 191.707031 96.226562 Z M 185.953125 96.378906 C 186.179688 96.457031 186.425781 96.527344 186.6875 96.570312 C 186.40625 96.796875 186.160156 97.058594 185.953125 97.355469 C 185.585938 97.042969 185.238281 96.722656 184.886719 96.394531 C 185.257812 96.410156 185.613281 96.40625 185.953125 96.378906 Z M 181.675781 90.574219 C 179.65625 88.339844 179.578125 85.671875 179.882812 83.777344 C 179.898438 83.753906 179.921875 83.726562 179.9375 83.699219 C 180.101562 85.125 180.421875 86.609375 180.910156 88.144531 L 181.097656 88.761719 C 181.265625 89.316406 181.453125 89.933594 181.675781 90.574219 Z M 188.238281 92.777344 C 188.113281 93.058594 187.996094 93.339844 187.886719 93.640625 C 187.085938 93.507812 186.285156 93.289062 185.492188 93.003906 C 184.800781 91.972656 184.304688 90.808594 184.207031 90.574219 C 182.785156 87.164062 182.101562 84.09375 182.167969 81.4375 C 182.765625 81.019531 183.589844 80.648438 184.363281 80.761719 C 185.011719 80.863281 185.597656 81.300781 186.128906 82.0625 C 187.535156 84.101562 187.859375 87.550781 188.101562 90.09375 C 188.117188 90.285156 188.140625 90.492188 188.171875 90.714844 C 188.242188 91.339844 188.328125 92.042969 188.292969 92.640625 Z M 195.304688 66.203125 C 195.304688 66.203125 195.304688 66.199219 195.304688 66.195312 C 195.375 66.257812 195.445312 66.324219 195.515625 66.394531 C 195.433594 66.382812 195.359375 66.375 195.285156 66.371094 C 195.277344 66.339844 195.277344 66.300781 195.277344 66.269531 Z M 213.945312 71.984375 C 214.09375 72.375 214.230469 72.761719 214.347656 73.167969 C 213.839844 72.871094 213.359375 72.617188 212.890625 72.390625 C 212.488281 72.191406 212.054688 72 211.589844 71.8125 C 211.730469 71.628906 211.859375 71.449219 211.984375 71.265625 C 212.601562 71.589844 213.269531 71.835938 213.945312 71.984375 Z M 213.300781 62.992188 C 214.289062 63.644531 215.167969 64.414062 215.925781 65.277344 L 216.054688 65.421875 C 216.410156 65.828125 217.199219 66.71875 217.34375 67.277344 L 215.8125 69.863281 C 215.699219 69.878906 215.585938 69.890625 215.464844 69.902344 C 214.96875 68.847656 214.445312 67.929688 213.863281 67.101562 C 213.796875 66.996094 213.71875 66.90625 213.640625 66.8125 C 213.792969 65.519531 213.679688 64.238281 213.300781 62.992188 Z M 227.683594 81.128906 C 225.539062 78.433594 222.25 76.367188 218.304688 75.230469 C 218.332031 75.105469 218.367188 74.980469 218.421875 74.863281 C 219.003906 73.496094 219.9375 72.65625 221.207031 72.367188 C 222.988281 71.96875 225.398438 72.761719 227.195312 74.347656 C 228.78125 75.753906 229.921875 77.582031 230.746094 79.097656 C 230.578125 79.324219 230.402344 79.554688 230.207031 79.761719 C 229.980469 80.011719 229.722656 80.226562 229.386719 80.507812 C 228.761719 80.679688 228.199219 80.886719 227.683594 81.128906 Z M 227.796875 92.171875 C 227.914062 92.054688 228.027344 91.941406 228.136719 91.820312 C 228.40625 91.976562 228.675781 92.152344 228.945312 92.335938 C 228.546875 92.324219 228.15625 92.269531 227.796875 92.171875 Z M 221.160156 99.40625 C 221.09375 98.464844 220.925781 97.503906 220.683594 96.535156 C 222.195312 96.003906 223.824219 95.164062 225.371094 94.105469 C 226.050781 94.761719 226.570312 95.367188 226.976562 95.984375 C 227.488281 96.746094 227.847656 97.566406 228.070312 98.429688 C 225.957031 99.179688 223.601562 99.511719 221.160156 99.40625 Z M 189.320312 71.285156 C 189.667969 71.105469 190.023438 70.9375 190.390625 70.777344 C 190.410156 70.835938 190.433594 70.890625 190.453125 70.949219 C 190.078125 71.050781 189.695312 71.164062 189.320312 71.285156 Z M 194.074219 77.230469 L 194.015625 77.441406 L 193.898438 77.5 Z M 197.300781 74.402344 L 197.238281 74.234375 C 196.988281 73.5625 196.742188 72.898438 196.535156 72.21875 L 196.492188 72.066406 C 197.210938 72 197.964844 71.957031 198.820312 71.925781 C 199.148438 72.84375 199.414062 73.808594 199.613281 74.792969 C 198.824219 74.757812 198.050781 74.625 197.300781 74.402344 Z M 210.902344 80.109375 C 210.570312 79.535156 210.125 79.066406 209.550781 78.699219 C 208.503906 78.019531 207.183594 77.777344 205.8125 77.777344 C 204.644531 77.777344 203.449219 77.953125 202.375 78.191406 C 202.363281 77.773438 202.34375 77.339844 202.308594 76.902344 C 204.269531 76.636719 206.15625 76.007812 207.835938 75.046875 C 209.136719 76.53125 210.175781 78.171875 210.933594 79.941406 C 210.921875 79.996094 210.917969 80.050781 210.902344 80.109375 Z M 213.960938 81.746094 C 213.792969 81.105469 213.59375 80.496094 213.371094 79.917969 C 213.527344 78.808594 213.449219 77.691406 213.144531 76.589844 C 213.699219 76.621094 214.285156 76.6875 214.894531 76.773438 C 214.914062 78.488281 214.597656 80.171875 213.960938 81.746094 Z M 227.550781 88.894531 L 227.546875 88.894531 C 227.546875 88.902344 227.546875 88.90625 227.542969 88.914062 C 226.863281 88.59375 226.171875 88.3125 225.480469 88.070312 C 225.464844 87.632812 225.414062 87.207031 225.335938 86.78125 C 225.625 85.875 226.148438 85.097656 226.980469 84.347656 C 227.007812 84.335938 227.039062 84.324219 227.0625 84.3125 C 228.007812 86.003906 228.167969 87.542969 227.550781 88.894531 Z M 213.894531 95.941406 C 214.457031 96.554688 215.195312 96.949219 216.03125 97.09375 C 216.777344 97.226562 217.609375 97.226562 218.515625 97.09375 C 218.679688 97.765625 218.804688 98.457031 218.875 99.15625 C 218.523438 99.121094 218.175781 99.082031 217.84375 99.007812 C 215.113281 98.363281 212.886719 96.976562 211.625 95.140625 C 212.378906 95.476562 213.132812 95.742188 213.894531 95.941406 Z M 206.777344 92.101562 C 207.210938 92.453125 207.652344 92.792969 208.109375 93.117188 C 209.027344 95.425781 208.871094 97.910156 207.71875 99.828125 C 207.601562 99.660156 207.5 99.492188 207.398438 99.320312 C 206.765625 98.277344 205.597656 95.8125 204.824219 93.085938 C 205.457031 92.796875 206.101562 92.46875 206.777344 92.101562 Z M 196.410156 82.820312 C 196.640625 82.679688 196.882812 82.574219 197.125 82.460938 C 197.15625 82.453125 197.1875 82.433594 197.222656 82.417969 C 197.886719 83.011719 198.613281 83.546875 199.394531 84.011719 C 199.320312 84.292969 199.246094 84.566406 199.140625 84.832031 C 199.078125 85.027344 198.984375 85.203125 198.898438 85.382812 C 196.378906 85.46875 193.996094 86.304688 192.058594 87.746094 C 192.964844 85.742188 194.464844 84.039062 196.410156 82.820312 Z M 199.910156 78.871094 L 199.757812 78.796875 C 199.507812 78.667969 199.25 78.539062 199.003906 78.398438 C 198.765625 77.921875 198.515625 77.414062 198.273438 76.886719 C 198.8125 76.960938 199.367188 77.011719 199.945312 77.027344 C 200.015625 77.65625 200.050781 78.25 200.058594 78.824219 C 200.011719 78.839844 199.957031 78.855469 199.910156 78.871094 Z M 202.261719 91.671875 C 200.140625 92.5 198.070312 93.089844 196.082031 93.429688 C 195.53125 93.523438 194.972656 93.601562 194.40625 93.667969 C 196.898438 92.195312 198.90625 90.214844 200.199219 87.917969 C 200.253906 87.828125 200.296875 87.734375 200.347656 87.636719 C 200.847656 87.691406 201.371094 87.796875 201.953125 87.945312 C 201.890625 89.269531 202.074219 90.617188 202.261719 91.671875 Z M 200.125 83.710938 Z M 205.898438 73.40625 C 204.734375 73.992188 203.40625 74.410156 202.046875 74.636719 C 201.882812 73.730469 201.671875 72.832031 201.402344 71.957031 C 202.53125 72.007812 203.703125 72.125 204.898438 72.320312 C 205.347656 72.65625 205.746094 72.976562 206.113281 73.292969 C 206.039062 73.328125 205.972656 73.371094 205.898438 73.40625 Z M 204.324219 83.289062 C 204.242188 83.34375 204.15625 83.390625 204.074219 83.449219 C 203.328125 83.308594 202.632812 83.105469 201.984375 82.839844 C 202.019531 82.679688 202.050781 82.515625 202.078125 82.359375 C 202.332031 82.484375 202.578125 82.609375 202.84375 82.714844 C 203.367188 82.9375 203.851562 83.125 204.324219 83.289062 Z M 212.128906 89.640625 C 211.96875 90.625 211.726562 91.574219 211.40625 92.480469 C 211.195312 92.367188 210.980469 92.25 210.769531 92.125 C 210.835938 91.335938 211.144531 90.371094 212.128906 89.640625 Z M 204.464844 86.472656 C 204.558594 86.242188 204.679688 86.035156 204.808594 85.855469 C 206.398438 85.988281 208.023438 85.753906 209.410156 85.195312 C 210.054688 85.410156 210.628906 85.683594 211.152344 86.007812 C 210.980469 86.207031 210.804688 86.402344 210.609375 86.585938 C 209.777344 87.378906 208.839844 88.136719 207.804688 88.84375 C 206.808594 87.867188 205.675781 87.054688 204.464844 86.472656 Z M 206.785156 81.699219 C 206.398438 81.613281 206.023438 81.511719 205.628906 81.371094 C 204.820312 81.113281 203.988281 80.800781 203.121094 80.4375 C 203.917969 80.292969 204.625 80.210938 205.292969 80.183594 C 205.578125 80.167969 205.832031 80.152344 206.066406 80.128906 C 207.097656 80.042969 207.125 80.042969 207.289062 81.167969 L 207.34375 81.339844 C 207.484375 81.640625 207.554688 81.839844 207.582031 81.972656 C 207.4375 81.945312 207.1875 81.867188 206.785156 81.699219 Z M 204.925781 90.476562 C 204.722656 90.589844 204.511719 90.710938 204.300781 90.816406 C 204.230469 90.421875 204.183594 90.050781 204.144531 89.691406 C 204.414062 89.964844 204.671875 90.222656 204.925781 90.476562 Z M 222.410156 84.761719 C 222.691406 85.402344 222.902344 86.015625 223.046875 86.613281 C 222.988281 86.851562 222.945312 87.09375 222.910156 87.335938 C 222.589844 87.25 222.265625 87.164062 221.933594 87.097656 C 220.390625 86.785156 218.207031 86.355469 216.074219 86.355469 C 215.675781 86.355469 215.28125 86.363281 214.894531 86.402344 C 214.828125 86.34375 214.765625 86.285156 214.699219 86.222656 L 214.644531 86.179688 C 214.632812 85.949219 214.613281 85.726562 214.589844 85.5 L 214.585938 85.398438 C 214.855469 85.015625 215.132812 84.632812 215.363281 84.222656 C 216.066406 83 216.5625 81.695312 216.863281 80.320312 C 217.128906 80.863281 217.453125 81.378906 217.824219 81.847656 C 219.089844 83.421875 220.636719 84.40625 222.410156 84.761719 Z M 225.144531 81.808594 C 225.335938 81.992188 225.511719 82.191406 225.691406 82.398438 C 225.660156 82.425781 225.625 82.453125 225.59375 82.476562 C 224.996094 82.601562 224.4375 82.660156 223.824219 82.609375 C 223.144531 81.324219 222.300781 80.085938 221.296875 78.90625 C 222.71875 79.699219 224.023438 80.679688 225.144531 81.808594 Z M 226.105469 90.800781 C 226.050781 90.859375 225.992188 90.914062 225.933594 90.96875 C 225.84375 90.859375 225.761719 90.742188 225.679688 90.613281 C 225.820312 90.675781 225.964844 90.738281 226.105469 90.800781 Z M 218.269531 90.796875 C 218.707031 90.796875 219.195312 90.839844 219.667969 90.929688 C 220.5 91.085938 221.375 91.40625 222.3125 91.902344 C 221.699219 92.675781 220.8125 93.285156 219.75 93.667969 C 219.339844 92.734375 218.84375 91.773438 218.25 90.796875 C 218.253906 90.796875 218.261719 90.796875 218.269531 90.796875 Z M 217.242188 94.132812 C 217.046875 94.132812 216.863281 94.105469 216.675781 94.078125 L 216.550781 94.066406 C 216.457031 93.953125 216.367188 93.839844 216.238281 93.671875 L 215.308594 92.492188 C 215.480469 92.113281 215.742188 91.800781 216.085938 91.542969 C 216.605469 92.40625 217.085938 93.289062 217.46875 94.121094 C 217.390625 94.125 217.355469 94.121094 217.242188 94.132812 Z M 214.757812 89.585938 C 214.628906 89.679688 214.503906 89.777344 214.390625 89.878906 C 214.425781 89.664062 214.457031 89.453125 214.484375 89.234375 C 214.582031 89.351562 214.667969 89.46875 214.757812 89.585938 Z M 211.582031 83.828125 C 211.738281 83.675781 211.878906 83.527344 212.011719 83.367188 C 212.070312 83.632812 212.113281 83.898438 212.15625 84.164062 C 211.96875 84.042969 211.773438 83.9375 211.582031 83.828125 Z M 195.453125 76.09375 C 195.484375 76.105469 195.515625 76.121094 195.542969 76.128906 C 195.570312 76.195312 195.59375 76.261719 195.625 76.320312 C 195.585938 76.296875 195.554688 76.277344 195.515625 76.253906 C 195.5 76.199219 195.472656 76.148438 195.453125 76.09375 Z M 191.636719 91.027344 C 193.0625 89.304688 195.1875 88.15625 197.589844 87.773438 C 196.054688 89.917969 193.796875 91.664062 191.066406 92.796875 C 191.054688 92.507812 191.054688 92.214844 191.066406 91.933594 L 191.160156 91.769531 C 191.300781 91.515625 191.449219 91.261719 191.636719 91.027344 Z M 195.707031 69.199219 C 196.308594 69.09375 196.871094 69.027344 197.410156 68.984375 C 197.425781 68.984375 197.441406 68.988281 197.464844 68.996094 C 197.605469 69.238281 197.738281 69.484375 197.863281 69.730469 C 197.183594 69.773438 196.527344 69.832031 195.871094 69.90625 C 195.8125 69.675781 195.757812 69.4375 195.707031 69.199219 Z M 191.183594 73.03125 C 191.28125 73 191.378906 72.96875 191.46875 72.933594 C 191.71875 73.273438 191.992188 73.605469 192.304688 73.929688 C 191.90625 73.617188 191.527344 73.320312 191.183594 73.03125 Z M 188.125 69.300781 C 187.945312 69.394531 187.769531 69.484375 187.59375 69.578125 C 187.566406 69.546875 187.535156 69.507812 187.503906 69.476562 C 187.707031 69.414062 187.914062 69.355469 188.125 69.300781 Z M 182.484375 78.828125 C 182.59375 78.433594 182.738281 78.019531 182.917969 77.570312 C 183.554688 76.875 184.113281 76.355469 184.679688 75.953125 C 185.742188 75.179688 187.039062 74.511719 188.710938 73.875 C 190.191406 75.191406 191.878906 76.492188 193.726562 77.753906 L 193.734375 77.726562 C 194.257812 78.839844 194.765625 79.691406 195.320312 80.410156 C 195.402344 80.523438 195.496094 80.625 195.585938 80.730469 C 194.992188 81.054688 194.492188 81.371094 194.113281 81.65625 C 192.332031 82.984375 190.933594 84.773438 190.023438 86.851562 C 189.632812 84.101562 188.867188 81.089844 186.867188 79.503906 C 186.066406 78.867188 185.144531 78.546875 184.152344 78.546875 C 183.613281 78.546875 183.058594 78.644531 182.484375 78.828125 Z M 209.546875 105.457031 C 209.921875 105.792969 210.332031 106.121094 210.769531 106.445312 C 210.300781 106.410156 209.828125 106.367188 209.347656 106.316406 C 208.585938 106.238281 207.820312 106.140625 207.058594 106.027344 C 207.832031 105.726562 208.675781 105.53125 209.546875 105.457031 Z M 192.101562 66.296875 C 192.207031 65.601562 192.429688 64.96875 192.757812 64.414062 C 192.855469 64.460938 192.957031 64.507812 193.050781 64.5625 C 193.019531 64.953125 193.011719 65.335938 193.019531 65.675781 C 192.9375 65.878906 192.863281 66.078125 192.792969 66.285156 C 192.566406 66.285156 192.332031 66.285156 192.101562 66.296875 Z M 211.273438 67.414062 C 211.273438 67.429688 211.273438 67.445312 211.273438 67.460938 C 211.265625 67.539062 211.265625 67.601562 211.257812 67.644531 C 211.242188 67.710938 211.214844 67.773438 211.195312 67.839844 C 210.46875 67.109375 209.820312 66.238281 209.285156 65.257812 C 209.992188 65.917969 210.65625 66.636719 211.273438 67.414062 Z M 178.195312 95.148438 C 178.113281 94.660156 178.050781 94.160156 178 93.628906 C 178.945312 94.484375 180.023438 95.164062 181.191406 95.632812 C 182.445312 97.101562 183.824219 98.433594 185.289062 99.601562 C 185.300781 101.242188 186.363281 103.050781 188.527344 105.109375 C 188.769531 105.878906 189.042969 106.621094 189.347656 107.339844 C 188.511719 107.453125 187.699219 107.425781 186.964844 107.257812 C 180.421875 105.765625 178.59375 97.609375 178.195312 95.148438 Z M 242.800781 82.933594 C 243.574219 78.375 242.058594 73.199219 238.796875 69.328125 C 237.835938 68.195312 236.710938 67.121094 235.441406 66.128906 C 234.621094 62.496094 232.777344 59.15625 230.105469 56.449219 C 224.777344 51.070312 215.542969 47.796875 208.9375 52.316406 C 208.011719 52.949219 207.285156 53.761719 206.6875 54.84375 C 206.15625 54.46875 205.671875 54.15625 205.21875 53.886719 C 199.746094 50.664062 193.222656 49.746094 187.332031 51.367188 C 184.355469 52.1875 182.386719 53.503906 181.296875 55.382812 C 180.089844 57.492188 180.105469 60.191406 181.347656 63.652344 C 181.390625 63.757812 181.4375 63.867188 181.480469 63.976562 C 177.714844 66.695312 175.371094 71.640625 175.027344 77.640625 C 173.824219 80.671875 173.523438 83.804688 174.148438 86.714844 C 174.449219 88.097656 174.9375 89.402344 175.609375 90.601562 C 175.589844 91.496094 175.617188 92.414062 175.695312 93.339844 C 176.394531 101.261719 180.71875 109.714844 188.585938 109.714844 C 188.65625 109.714844 188.734375 109.714844 188.804688 109.710938 C 189.300781 109.703125 189.828125 109.632812 190.375 109.515625 C 192.503906 113.363281 195.441406 115.972656 198.890625 117.066406 C 200.703125 117.648438 203.15625 117.910156 205.6875 117.851562 C 207.515625 118.933594 209.828125 119.679688 212.558594 120.0625 C 213.789062 120.242188 215.097656 120.328125 216.453125 120.328125 C 223.199219 120.328125 231.027344 118.078125 235.324219 112.550781 C 237.121094 110.238281 238.015625 107.320312 237.925781 104.070312 C 242.617188 101.730469 245.457031 98.632812 246.605469 94.605469 C 247.832031 90.289062 246.339844 85.75 242.800781 82.933594 " fill-opacity="1" fill-rule="nonzero"/><path fill="#2e1a31" d="M 70.269531 100.160156 C 69.09375 100.667969 67.699219 100.203125 67.070312 99.054688 C 65.304688 95.832031 64.554688 92.023438 64.96875 88.324219 C 65.277344 85.554688 66.378906 83.203125 67.441406 80.929688 L 68.027344 79.667969 C 70.542969 74.09375 68.9375 72.050781 66.820312 70.671875 C 63.15625 68.28125 58.214844 69.949219 55.21875 72.832031 C 54.085938 73.933594 50.574219 77.863281 53.269531 82.355469 C 53.988281 83.546875 53.601562 85.097656 52.40625 85.8125 C 51.210938 86.527344 49.667969 86.144531 48.953125 84.949219 C 45.933594 79.917969 47.023438 73.738281 51.726562 69.207031 C 56.027344 65.070312 63.433594 62.449219 69.574219 66.453125 C 74.671875 69.777344 75.691406 74.921875 72.617188 81.738281 L 72.007812 83.066406 C 71.074219 85.058594 70.191406 86.9375 69.976562 88.886719 C 69.679688 91.519531 70.230469 94.34375 71.484375 96.632812 C 72.152344 97.851562 71.710938 99.382812 70.488281 100.054688 C 70.414062 100.089844 70.34375 100.128906 70.269531 100.160156 " fill-opacity="1" fill-rule="nonzero"/><path fill="#2e1a31" d="M 75.417969 103.871094 C 76.113281 105.503906 75.363281 107.398438 73.726562 108.101562 C 72.097656 108.804688 70.203125 108.046875 69.503906 106.410156 C 68.800781 104.78125 69.550781 102.886719 71.1875 102.183594 C 72.820312 101.484375 74.710938 102.238281 75.417969 103.871094 " fill-opacity="1" fill-rule="nonzero"/><path fill="#ffffff" d="M 172.5625 147.660156 C 172.589844 147.613281 172.625 147.570312 172.667969 147.53125 C 172.894531 147.34375 172.902344 147.335938 173.921875 147.511719 C 174.71875 147.632812 176.585938 147.9375 176.796875 147.953125 C 179.667969 148.125 182.46875 147.570312 184.765625 146.382812 C 190.960938 143.199219 194.789062 135.835938 194.070312 128.472656 C 193.648438 124.21875 190.089844 120.292969 185.597656 119.152344 C 179.726562 117.65625 176.121094 121.449219 172.652344 125.136719 L 172.347656 125.460938 C 172.183594 125.636719 171.941406 125.699219 171.703125 125.628906 C 171.273438 125.5 128.660156 112.070312 117.921875 77.117188 C 115.167969 79.886719 105.53125 90.488281 103.765625 104.613281 C 103.332031 108.140625 102.058594 111.546875 99.980469 114.75 C 97.097656 119.210938 93.941406 126.074219 95.289062 133.492188 C 96.03125 137.539062 97.941406 141.242188 100.898438 144.546875 L 103.199219 143.117188 C 106.207031 141.25 109.953125 141.792969 112.445312 144.164062 C 113.042969 143.503906 113.734375 143.035156 114.574219 142.910156 C 116.660156 142.613281 118.828125 144.082031 119.945312 144.996094 C 122.535156 147.089844 125.179688 150.710938 125.261719 154.070312 C 125.285156 155.246094 124.894531 156.261719 124.308594 157.199219 C 130.234375 158.753906 136.722656 159.730469 142.828125 159.914062 C 150.695312 160.128906 165.0625 158.882812 172.5625 147.660156 " fill-opacity="1" fill-rule="nonzero"/><path fill="#ffffff" d="M 114.34375 222.355469 C 116.796875 218.515625 118.125 214.089844 118.191406 209.558594 L 117.65625 179.382812 C 117.65625 179.269531 117.6875 179.15625 117.75 179.054688 L 123.96875 168.441406 C 125.554688 165.734375 125.335938 162.382812 123.398438 159.910156 L 118.824219 154.046875 L 109.351562 160.3125 C 109.246094 160.382812 109.121094 160.417969 109 160.417969 C 108.800781 160.417969 108.597656 160.320312 108.476562 160.136719 C 108.285156 159.847656 108.363281 159.457031 108.652344 159.261719 L 118.046875 153.046875 L 113.804688 147.617188 L 104.496094 153.777344 C 104.386719 153.847656 104.265625 153.878906 104.144531 153.878906 C 103.945312 153.878906 103.746094 153.78125 103.621094 153.597656 C 103.425781 153.308594 103.507812 152.914062 103.800781 152.722656 L 113.023438 146.621094 L 112.289062 145.679688 C 110.269531 143.089844 106.636719 142.453125 103.871094 144.183594 L 100.421875 146.332031 C 96.371094 148.847656 94.667969 153.917969 96.375 158.382812 L 98.875 164.917969 C 98.878906 164.941406 98.882812 164.957031 98.890625 164.972656 L 100.335938 168.746094 C 100.460938 169.070312 100.296875 169.429688 99.972656 169.558594 C 99.644531 169.667969 99.277344 169.515625 99.152344 169.191406 L 98.117188 166.472656 L 75.425781 197.050781 C 69.730469 204.742188 69.054688 214.976562 73.75 222.511719 C 78.011719 229.339844 86.015625 233.726562 93.996094 233.726562 C 94.441406 233.726562 94.890625 233.710938 95.332031 233.683594 C 103.015625 233.199219 110.125 228.972656 114.34375 222.355469 " fill-opacity="1" fill-rule="nonzero"/><path fill="#ffffff" d="M 120.496094 176.859375 C 142.890625 186.082031 152.542969 171.496094 154.300781 168.367188 C 152.839844 167.785156 151.324219 166.878906 150.351562 165.425781 C 149.492188 164.140625 149.300781 162.625 149.605469 160.960938 C 147.988281 161.117188 146.320312 161.203125 144.59375 161.203125 C 143.996094 161.203125 143.394531 161.195312 142.792969 161.175781 C 136.527344 160.988281 129.863281 159.972656 123.796875 158.371094 L 124.390625 159.132812 C 126.652344 162.019531 126.910156 165.925781 125.050781 169.078125 L 120.496094 176.859375 " fill-opacity="1" fill-rule="nonzero"/><path fill="#ff745c" d="M 160.808594 199.894531 C 161.160156 199.910156 161.425781 200.207031 161.40625 200.554688 L 160.605469 216.828125 L 199.019531 217.238281 C 198.730469 207.34375 198.285156 197.183594 194.535156 188.050781 C 191.679688 181.089844 185.542969 175.265625 178.125 172.476562 C 173.644531 170.789062 168.84375 170.371094 164.1875 169.960938 C 162.0625 169.777344 159.863281 169.585938 157.710938 169.273438 C 157.1875 169.199219 156.390625 169.015625 155.527344 168.761719 C 154.273438 171.050781 147.960938 181.179688 134.210938 181.179688 C 130.105469 181.179688 125.328125 180.246094 119.847656 177.964844 L 118.925781 179.539062 L 119.449219 209.558594 C 119.382812 214.34375 117.980469 218.996094 115.40625 223.035156 C 112.125 228.175781 107.175781 231.9375 101.554688 233.753906 L 158.503906 233.753906 L 160.152344 200.496094 C 160.167969 200.144531 160.472656 199.867188 160.808594 199.894531 " fill-opacity="1" fill-rule="nonzero"/><path fill="#ffffff" d="M 199.0625 218.683594 C 199.0625 218.621094 199.054688 218.558594 199.054688 218.5 L 160.539062 218.089844 L 159.761719 233.753906 L 198.84375 233.753906 C 199.367188 229.3125 199.238281 224.75 199.109375 220.335938 L 199.0625 218.683594 " fill-opacity="1" fill-rule="nonzero"/><path fill="#966760" d="M 212.730469 151.105469 C 206.367188 144.195312 207.867188 134.484375 209.308594 125.097656 C 209.957031 120.9375 210.558594 116.996094 210.453125 113.464844 C 210.195312 105.148438 208.980469 97.382812 206.835938 90.386719 C 202.53125 76.347656 192.445312 64.640625 178.4375 57.40625 C 163.269531 49.574219 145.671875 48.035156 130.175781 53.175781 C 109 60.203125 93.265625 78.414062 88.09375 101.898438 C 87.726562 103.550781 87.417969 105.207031 87.167969 106.820312 C 86.457031 111.425781 83.925781 115.609375 80.046875 118.621094 C 73.777344 123.496094 70.257812 130.890625 70.640625 138.421875 C 70.835938 142.238281 72.027344 146.035156 74.09375 149.410156 C 74.6875 150.382812 75.460938 151.285156 76.199219 152.148438 C 77.640625 153.839844 79.128906 155.585938 79.570312 158.035156 C 80.300781 162.085938 78.355469 165.699219 76.484375 169.203125 C 75.574219 170.914062 74.710938 172.523438 74.148438 174.152344 C 71.800781 181.019531 72.828125 187.449219 77.035156 192.269531 C 77.121094 192.371094 77.136719 192.496094 77.152344 192.613281 L 97.582031 165.074219 L 95.191406 158.835938 C 93.277344 153.808594 95.191406 148.105469 99.757812 145.257812 L 99.816406 145.222656 C 96.789062 141.785156 94.816406 137.933594 94.050781 133.71875 C 92.628906 125.890625 95.917969 118.714844 98.925781 114.058594 C 100.898438 111.023438 102.101562 107.789062 102.519531 104.457031 C 104.625 87.5625 117.667969 75.589844 117.800781 75.472656 C 117.96875 75.328125 118.210938 75.28125 118.394531 75.335938 C 118.605469 75.398438 118.769531 75.558594 118.828125 75.769531 C 128.367188 109.058594 167.46875 122.898438 171.703125 124.304688 L 171.734375 124.273438 C 175.28125 120.511719 179.257812 116.234375 185.917969 117.929688 C 190.898438 119.203125 194.851562 123.585938 195.316406 128.347656 C 196.089844 136.210938 191.988281 144.089844 185.351562 147.503906 C 182.847656 148.789062 179.917969 149.398438 176.726562 149.210938 C 176.582031 149.207031 175.878906 149.097656 173.726562 148.746094 L 173.375 148.691406 C 168.707031 155.441406 160.859375 159.578125 150.859375 160.792969 C 150.484375 162.292969 150.660156 163.621094 151.398438 164.730469 C 152.972656 167.09375 156.460938 167.820312 157.890625 168.027344 C 160.003906 168.328125 162.191406 168.523438 164.292969 168.703125 C 169.03125 169.121094 173.933594 169.550781 178.574219 171.292969 C 186.3125 174.203125 192.710938 180.289062 195.695312 187.570312 C 199.550781 196.957031 199.988281 207.285156 200.28125 217.347656 C 200.363281 217.308594 200.425781 217.242188 200.523438 217.242188 C 206.773438 217.242188 211.671875 212.292969 213.960938 208.054688 C 215.820312 204.613281 216.242188 200.632812 215.082031 197.429688 C 214.730469 196.476562 214.257812 195.585938 213.761719 194.648438 C 213.214844 193.617188 212.648438 192.554688 212.269531 191.410156 C 210.578125 186.304688 213.195312 181.882812 216.019531 177.785156 C 218.183594 174.648438 219.550781 171.691406 220.199219 168.734375 C 221.886719 161.054688 217.921875 156.742188 212.898438 151.285156 L 212.730469 151.105469 " fill-opacity="1" fill-rule="nonzero"/><path fill="#2e1a31" d="M 178.007812 136.363281 C 178.207031 136.363281 178.40625 136.265625 178.53125 136.078125 C 178.550781 136.054688 180.402344 133.289062 183.101562 132.828125 C 183.441406 132.769531 183.671875 132.445312 183.613281 132.101562 C 183.554688 131.757812 183.25 131.527344 182.882812 131.585938 C 179.640625 132.144531 177.5625 135.257812 177.476562 135.390625 C 177.289062 135.679688 177.371094 136.066406 177.660156 136.261719 C 177.761719 136.332031 177.886719 136.363281 178.007812 136.363281 " fill-opacity="1" fill-rule="nonzero"/><path fill="#2e1a31" d="M 126.628906 125.996094 C 126.960938 125.882812 127.136719 125.519531 127.023438 125.195312 C 126.566406 123.863281 125.777344 122.007812 124.1875 121.28125 C 123.410156 120.9375 122.507812 120.925781 121.703125 121.253906 C 120.960938 121.570312 120.402344 122.136719 120.144531 122.84375 C 119.660156 124.148438 120.199219 125.613281 120.558594 126.367188 C 120.667969 126.59375 120.890625 126.722656 121.125 126.722656 C 121.21875 126.722656 121.308594 126.707031 121.394531 126.664062 C 121.710938 126.511719 121.84375 126.140625 121.691406 125.828125 C 121.222656 124.839844 121.089844 123.917969 121.320312 123.28125 C 121.464844 122.898438 121.769531 122.59375 122.195312 122.417969 C 122.675781 122.226562 123.214844 122.222656 123.664062 122.433594 C 124.945312 123.011719 125.609375 124.957031 125.832031 125.601562 C 125.945312 125.933594 126.324219 126.109375 126.628906 125.996094 " fill-opacity="1" fill-rule="nonzero"/><path fill="#2e1a31" d="M 126.1875 141.863281 C 125.863281 142 125.714844 142.367188 125.847656 142.683594 C 125.984375 143.015625 126.367188 143.171875 126.667969 143.023438 C 126.714844 143.015625 131.210938 141.179688 135.359375 143.175781 C 135.449219 143.21875 135.542969 143.234375 135.636719 143.234375 C 135.875 143.234375 136.09375 143.105469 136.203125 142.882812 C 136.355469 142.566406 136.21875 142.1875 135.910156 142.042969 C 131.25 139.792969 126.386719 141.785156 126.1875 141.863281 " fill-opacity="1" fill-rule="nonzero"/><path fill="#2e1a31" d="M 112.875 109.765625 C 112.75 109.714844 112.628906 109.683594 112.5 109.65625 C 111.96875 109.546875 111.441406 109.632812 110.929688 109.84375 L 109.289062 107.835938 C 109.070312 107.5625 108.671875 107.527344 108.402344 107.75 C 108.132812 107.972656 108.089844 108.367188 108.3125 108.636719 L 109.898438 110.578125 C 108.710938 111.582031 107.707031 113.265625 107.300781 115.425781 C 106.671875 118.84375 107.71875 121.972656 109.671875 122.703125 C 109.789062 122.75 109.917969 122.789062 110.046875 122.816406 C 112.238281 123.257812 114.566406 120.671875 115.238281 117.039062 C 115.875 113.625 114.824219 110.492188 112.875 109.765625 " fill-opacity="1" fill-rule="nonzero"/><path fill="#2e1a31" d="M 147.695312 117.578125 C 147.578125 117.535156 147.449219 117.5 147.320312 117.472656 C 146.550781 117.316406 145.792969 117.640625 145.070312 118.140625 L 142.566406 115.074219 C 142.347656 114.804688 141.949219 114.769531 141.679688 114.988281 C 141.410156 115.210938 141.371094 115.597656 141.59375 115.875 L 144.09375 118.933594 C 143.183594 119.976562 142.460938 121.480469 142.132812 123.246094 C 141.695312 125.621094 141.894531 129.855469 145.027344 130.28125 C 147.988281 130.679688 149.628906 127.242188 150.070312 124.855469 C 150.703125 121.4375 149.648438 118.308594 147.695312 117.578125 " fill-opacity="1" fill-rule="nonzero"/><path fill="#2e1a31" d="M 113.339844 93.300781 C 113.269531 93.300781 113.203125 93.300781 113.140625 93.300781 C 111.136719 93.300781 109.359375 94.671875 108.230469 97.101562 C 108.085938 97.417969 108.21875 97.792969 108.539062 97.9375 C 108.867188 98.089844 109.222656 97.953125 109.367188 97.636719 C 110.328125 95.578125 111.753906 94.546875 113.28125 94.558594 C 114.90625 94.632812 116.4375 95.929688 117.09375 97.792969 C 117.191406 98.046875 117.429688 98.207031 117.695312 98.207031 C 117.757812 98.207031 117.835938 98.195312 117.90625 98.175781 C 118.234375 98.054688 118.402344 97.699219 118.289062 97.367188 C 117.457031 95.035156 115.472656 93.398438 113.339844 93.300781 " fill-opacity="1" fill-rule="nonzero"/><path fill="#2e1a31" d="M 156.058594 103.511719 C 153.210938 105.65625 150.449219 105.035156 149.054688 104.472656 C 146.769531 103.546875 145.015625 101.554688 144.691406 99.511719 C 144.636719 99.167969 144.296875 98.929688 143.972656 98.988281 C 143.628906 99.042969 143.390625 99.367188 143.449219 99.707031 C 143.839844 102.175781 145.90625 104.554688 148.585938 105.640625 C 149.617188 106.054688 150.6875 106.261719 151.738281 106.261719 C 153.519531 106.261719 155.277344 105.671875 156.816406 104.515625 C 157.089844 104.3125 157.152344 103.917969 156.941406 103.636719 C 156.734375 103.363281 156.339844 103.296875 156.058594 103.511719 " fill-opacity="1" fill-rule="nonzero"/><path fill="#ffffff" d="M 119.152344 145.964844 C 117.527344 144.648438 115.917969 143.957031 114.765625 144.160156 C 114.207031 144.238281 113.761719 144.550781 113.355469 145 C 113.355469 145 122.746094 157.03125 122.886719 157.070312 C 123.5 156.253906 124.03125 155.160156 124.003906 154.09375 C 123.9375 151.160156 121.4375 147.824219 119.152344 145.964844 " fill-opacity="1" fill-rule="nonzero"/><g clip-path="url(#25135cdac0)"><path fill="#2e1a31" d="M 220.199219 168.734375 C 219.550781 171.691406 218.183594 174.648438 216.019531 177.785156 C 213.195312 181.882812 210.578125 186.304688 212.269531 191.410156 C 212.648438 192.554688 213.214844 193.617188 213.761719 194.648438 C 214.257812 195.585938 214.730469 196.476562 215.082031 197.429688 C 216.242188 200.632812 215.820312 204.613281 213.960938 208.054688 C 211.671875 212.292969 206.773438 217.242188 200.523438 217.242188 C 200.425781 217.242188 200.363281 217.308594 200.28125 217.347656 C 199.988281 207.285156 199.550781 196.957031 195.695312 187.570312 C 192.710938 180.289062 186.3125 174.203125 178.574219 171.292969 C 173.933594 169.550781 169.03125 169.121094 164.292969 168.703125 C 162.191406 168.523438 160.003906 168.328125 157.890625 168.027344 C 156.460938 167.820312 152.972656 167.09375 151.398438 164.730469 C 150.660156 163.621094 150.484375 162.292969 150.859375 160.792969 C 160.859375 159.578125 168.707031 155.441406 173.375 148.691406 L 173.726562 148.746094 C 175.878906 149.097656 176.582031 149.207031 176.726562 149.210938 C 179.917969 149.398438 182.847656 148.789062 185.351562 147.503906 C 191.988281 144.089844 196.089844 136.210938 195.316406 128.347656 C 194.851562 123.585938 190.898438 119.203125 185.917969 117.929688 C 179.257812 116.234375 175.28125 120.511719 171.734375 124.273438 L 171.703125 124.304688 C 167.46875 122.898438 128.367188 109.058594 118.828125 75.769531 C 118.769531 75.558594 118.605469 75.398438 118.394531 75.335938 C 118.210938 75.28125 117.96875 75.328125 117.800781 75.472656 C 117.667969 75.589844 104.625 87.5625 102.519531 104.457031 C 102.101562 107.789062 100.898438 111.023438 98.925781 114.058594 C 95.917969 118.714844 92.628906 125.890625 94.050781 133.71875 C 94.816406 137.933594 96.789062 141.785156 99.816406 145.222656 L 99.757812 145.257812 C 95.191406 148.105469 93.277344 153.808594 95.191406 158.835938 L 97.582031 165.074219 L 77.242188 192.5 C 77.1875 192.484375 77.121094 192.371094 77.035156 192.269531 C 72.828125 187.449219 71.800781 181.019531 74.148438 174.152344 C 74.710938 172.523438 75.574219 170.914062 76.484375 169.203125 C 78.355469 165.699219 80.300781 162.085938 79.570312 158.035156 C 79.128906 155.585938 77.640625 153.839844 76.199219 152.148438 C 75.460938 151.285156 74.6875 150.382812 74.09375 149.410156 C 72.027344 146.035156 70.835938 142.238281 70.640625 138.421875 C 70.257812 130.890625 73.777344 123.496094 80.046875 118.621094 C 83.925781 115.609375 86.457031 111.425781 87.167969 106.820312 C 87.417969 105.207031 87.726562 103.550781 88.09375 101.898438 C 93.265625 78.414062 109 60.203125 130.175781 53.175781 C 145.671875 48.035156 163.269531 49.574219 178.4375 57.40625 C 192.445312 64.640625 202.53125 76.347656 206.835938 90.386719 C 208.980469 97.382812 210.195312 105.148438 210.453125 113.464844 C 210.558594 116.996094 209.957031 120.9375 209.308594 125.097656 C 207.867188 134.484375 206.367188 144.195312 212.730469 151.105469 L 212.898438 151.285156 C 217.921875 156.742188 221.886719 161.054688 220.199219 168.734375 Z M 198.84375 233.753906 L 159.761719 233.753906 L 160.539062 218.089844 L 199.054688 218.5 C 199.054688 218.558594 199.0625 218.621094 199.0625 218.683594 L 199.109375 220.335938 C 199.238281 224.75 199.367188 229.3125 198.84375 233.753906 Z M 158.503906 233.753906 L 101.554688 233.753906 C 107.175781 231.9375 112.125 228.175781 115.40625 223.035156 C 117.980469 218.996094 119.382812 214.34375 119.449219 209.558594 L 118.925781 179.539062 L 119.847656 177.964844 C 125.328125 180.246094 130.105469 181.179688 134.210938 181.179688 C 147.960938 181.179688 154.273438 171.050781 155.527344 168.761719 C 156.390625 169.015625 157.1875 169.199219 157.710938 169.273438 C 159.863281 169.585938 162.0625 169.777344 164.1875 169.960938 C 168.84375 170.371094 173.644531 170.789062 178.125 172.476562 C 185.542969 175.265625 191.679688 181.089844 194.535156 188.050781 C 198.285156 197.183594 198.730469 207.34375 199.019531 217.238281 L 160.605469 216.828125 L 161.40625 200.554688 C 161.425781 200.207031 161.160156 199.910156 160.808594 199.894531 C 160.472656 199.867188 160.167969 200.144531 160.152344 200.496094 Z M 142.828125 159.914062 C 136.722656 159.730469 130.234375 158.753906 124.308594 157.199219 C 124.894531 156.261719 125.285156 155.246094 125.261719 154.070312 C 125.179688 150.710938 122.535156 147.089844 119.945312 144.996094 C 118.828125 144.082031 116.660156 142.613281 114.574219 142.910156 C 113.734375 143.035156 113.042969 143.503906 112.445312 144.164062 C 109.953125 141.792969 106.207031 141.25 103.199219 143.117188 L 100.898438 144.546875 C 97.941406 141.242188 96.03125 137.539062 95.289062 133.492188 C 93.941406 126.074219 97.097656 119.210938 99.980469 114.75 C 102.058594 111.546875 103.332031 108.140625 103.765625 104.613281 C 105.53125 90.488281 115.167969 79.886719 117.921875 77.117188 C 128.660156 112.070312 171.273438 125.5 171.703125 125.628906 C 171.941406 125.699219 172.183594 125.636719 172.347656 125.460938 L 172.652344 125.136719 C 176.121094 121.449219 179.726562 117.65625 185.597656 119.152344 C 190.089844 120.292969 193.648438 124.21875 194.070312 128.472656 C 194.789062 135.835938 190.960938 143.199219 184.765625 146.382812 C 182.46875 147.570312 179.667969 148.125 176.796875 147.953125 C 176.585938 147.9375 174.71875 147.632812 173.921875 147.511719 C 172.902344 147.335938 172.894531 147.34375 172.667969 147.53125 C 172.625 147.570312 172.589844 147.613281 172.5625 147.660156 C 165.0625 158.882812 150.695312 160.128906 142.828125 159.914062 Z M 122.886719 157.070312 C 122.746094 157.03125 113.355469 145 113.355469 145 C 113.761719 144.550781 114.207031 144.238281 114.765625 144.160156 C 115.917969 143.957031 117.527344 144.648438 119.152344 145.964844 C 121.4375 147.824219 123.9375 151.160156 124.003906 154.09375 C 124.03125 155.160156 123.5 156.253906 122.886719 157.070312 Z M 124.390625 159.132812 L 123.796875 158.371094 C 129.863281 159.972656 136.527344 160.988281 142.792969 161.175781 C 143.394531 161.195312 143.996094 161.203125 144.59375 161.203125 C 146.320312 161.203125 147.988281 161.117188 149.605469 160.960938 C 149.300781 162.625 149.492188 164.140625 150.351562 165.425781 C 151.324219 166.878906 152.839844 167.785156 154.300781 168.367188 C 152.542969 171.496094 142.890625 186.082031 120.496094 176.859375 L 125.050781 169.078125 C 126.910156 165.925781 126.652344 162.019531 124.390625 159.132812 Z M 93.996094 233.726562 C 86.015625 233.726562 78.011719 229.339844 73.75 222.511719 C 69.054688 214.976562 69.730469 204.742188 75.425781 197.050781 L 98.117188 166.472656 L 99.152344 169.191406 C 99.277344 169.515625 99.644531 169.667969 99.972656 169.558594 C 100.296875 169.429688 100.460938 169.070312 100.335938 168.746094 L 98.890625 164.972656 C 98.882812 164.957031 98.878906 164.941406 98.875 164.917969 L 96.375 158.382812 C 94.667969 153.917969 96.371094 148.847656 100.421875 146.332031 L 103.871094 144.183594 C 106.636719 142.453125 110.269531 143.089844 112.289062 145.679688 L 113.023438 146.621094 L 103.800781 152.722656 C 103.507812 152.914062 103.425781 153.308594 103.621094 153.597656 C 103.746094 153.78125 103.945312 153.878906 104.144531 153.878906 C 104.265625 153.878906 104.386719 153.847656 104.496094 153.777344 L 113.804688 147.617188 L 118.046875 153.046875 L 108.652344 159.261719 C 108.363281 159.457031 108.285156 159.847656 108.476562 160.136719 C 108.597656 160.320312 108.800781 160.417969 109 160.417969 C 109.121094 160.417969 109.246094 160.382812 109.351562 160.3125 L 118.824219 154.046875 L 123.398438 159.910156 C 125.335938 162.382812 125.554688 165.734375 123.96875 168.441406 L 117.75 179.054688 C 117.6875 179.15625 117.65625 179.269531 117.65625 179.382812 L 118.191406 209.558594 C 118.125 214.089844 116.796875 218.515625 114.34375 222.355469 C 110.125 228.972656 103.015625 233.199219 95.332031 233.683594 C 94.890625 233.710938 94.441406 233.726562 93.996094 233.726562 Z M 213.652344 150.246094 C 207.707031 143.792969 209.15625 134.382812 210.554688 125.289062 C 211.207031 121.066406 211.816406 117.078125 211.710938 113.429688 C 211.449219 104.996094 210.214844 97.121094 208.035156 90.011719 C 203.632812 75.65625 193.324219 63.671875 179.019531 56.28125 C 163.5625 48.304688 145.613281 46.730469 129.78125 51.988281 C 108.179688 59.148438 92.140625 77.707031 86.863281 101.625 C 86.488281 103.308594 86.175781 104.992188 85.921875 106.632812 C 85.257812 110.914062 82.902344 114.816406 79.273438 117.628906 C 72.679688 122.75 68.980469 130.550781 69.382812 138.480469 C 69.582031 142.511719 70.847656 146.515625 73.019531 150.074219 C 73.667969 151.125 74.464844 152.066406 75.242188 152.96875 C 76.636719 154.601562 77.953125 156.140625 78.335938 158.261719 C 78.984375 161.875 77.148438 165.300781 75.375 168.617188 C 74.476562 170.289062 73.554688 172.015625 72.960938 173.753906 C 70.464844 181.050781 71.570312 187.929688 76.089844 193.097656 C 76.242188 193.273438 76.242188 193.273438 76.507812 193.488281 L 74.414062 196.304688 C 68.40625 204.402344 67.710938 215.203125 72.679688 223.179688 C 76.976562 230.058594 84.890625 234.542969 92.9375 234.914062 C 93.019531 234.953125 93.089844 235.019531 93.1875 235.019531 L 199.402344 235.019531 C 199.714844 235.019531 199.984375 234.78125 200.027344 234.472656 C 200.644531 229.75 200.503906 224.945312 200.367188 220.296875 L 200.320312 218.648438 C 200.320312 218.570312 200.3125 218.496094 200.3125 218.421875 C 200.382812 218.445312 200.4375 218.507812 200.523438 218.507812 C 207.328125 218.507812 212.609375 213.199219 215.070312 208.660156 C 217.132812 204.84375 217.566406 200.589844 216.257812 196.996094 C 215.886719 195.960938 215.367188 195 214.871094 194.054688 C 214.328125 193.027344 213.808594 192.058594 213.464844 191.015625 C 211.953125 186.453125 214.300781 182.492188 217.050781 178.503906 C 219.316406 175.226562 220.75 172.117188 221.433594 169 C 223.257812 160.679688 218.882812 155.929688 213.820312 150.429688 L 213.652344 150.246094 " fill-opacity="1" fill-rule="nonzero"/></g></svg>