<svg xmlns="http://www.w3.org/2000/svg" xmlns:xlink="http://www.w3.org/1999/xlink" width="1920" zoomAndPan="magnify" viewBox="0 0 1440 809.999993" height="1080" preserveAspectRatio="xMidYMid meet" version="1.0"><defs><clipPath id="12fa51c5e3"><path d="M 170.765625 352 L 719.765625 352 L 719.765625 368 L 170.765625 368 Z M 170.765625 352 " clip-rule="nonzero"/></clipPath><clipPath id="30bcd1b8ca"><path d="M 280 661 L 291 661 L 291 671.933594 L 280 671.933594 Z M 280 661 " clip-rule="nonzero"/></clipPath><clipPath id="0266f94f13"><path d="M 306 661 L 317 661 L 317 671.933594 L 306 671.933594 Z M 306 661 " clip-rule="nonzero"/></clipPath><clipPath id="6881fecf34"><path d="M 332 661 L 343 661 L 343 671.933594 L 332 671.933594 Z M 332 661 " clip-rule="nonzero"/></clipPath><clipPath id="7d91a96102"><path d="M 358 661 L 369 661 L 369 671.933594 L 358 671.933594 Z M 358 661 " clip-rule="nonzero"/></clipPath></defs><rect x="-144" width="1728" fill="#ffffff" y="-80.999999" height="971.999992" fill-opacity="1"/><rect x="-144" width="1728" fill="#ffffff" y="-80.999999" height="971.999992" fill-opacity="1"/><rect x="-144" width="1728" fill="#ffffff" y="-80.999999" height="971.999992" fill-opacity="1"/><path fill="#bccbff" d="M 192.914062 364.390625 L 696.757812 364.390625 L 696.757812 385.683594 L 192.914062 385.683594 Z M 192.914062 364.390625 " fill-opacity="1" fill-rule="nonzero"/><path fill="#bccbff" d="M 697.1875 670.453125 L 624.503906 670.453125 L 624.503906 365.46875 L 630.09375 365.46875 L 630.09375 664.859375 L 691.59375 664.859375 L 691.59375 365.46875 L 697.1875 365.46875 Z M 697.1875 670.453125 " fill-opacity="1" fill-rule="nonzero"/><path fill="#bccbff" d="M 265.597656 670.453125 L 192.914062 670.453125 L 192.914062 365.46875 L 198.507812 365.46875 L 198.507812 664.859375 L 260.007812 664.859375 L 260.007812 365.46875 L 265.597656 365.46875 Z M 265.597656 670.453125 " fill-opacity="1" fill-rule="nonzero"/><path fill="#e9eeff" d="M 444.511719 571.945312 L 423.867188 645.933594 L 377.636719 645.933594 L 389.246094 570.007812 C 389.03125 570.007812 446.664062 570.007812 444.511719 571.945312 Z M 444.511719 571.945312 " fill-opacity="1" fill-rule="nonzero"/><path fill="#d7deff" d="M 455.265625 659.914062 C 455.265625 660.128906 455.480469 660.128906 455.480469 660.34375 C 455.480469 660.558594 455.695312 660.558594 455.695312 660.773438 C 455.695312 660.988281 455.695312 660.988281 455.910156 661.203125 C 455.910156 661.417969 455.910156 661.632812 456.125 661.632812 C 456.125 661.632812 456.125 661.847656 456.125 661.847656 C 456.125 662.0625 456.125 662.496094 456.339844 662.710938 C 456.339844 662.710938 456.339844 662.925781 456.339844 662.925781 C 456.339844 663.140625 456.339844 663.355469 456.339844 663.570312 C 456.339844 663.570312 456.339844 663.785156 456.339844 663.785156 C 456.339844 664 456.339844 664.214844 456.339844 664.429688 C 456.339844 664.429688 456.339844 664.644531 456.339844 664.644531 C 456.339844 664.859375 456.339844 665.289062 456.125 665.503906 L 455.480469 669.808594 L 373.765625 670.238281 L 375.269531 660.128906 Z M 455.265625 659.914062 " fill-opacity="1" fill-rule="nonzero"/><path fill="#ff7382" d="M 409.03125 645.71875 L 410.105469 645.71875 L 410.105469 645.503906 C 410.320312 645.503906 410.535156 645.503906 410.75 645.503906 C 410.964844 645.503906 411.179688 645.503906 411.398438 645.503906 L 410.75 649.589844 L 425.804688 649.589844 L 427.09375 644.859375 L 447.953125 653.890625 C 448.382812 654.105469 448.8125 654.105469 449.027344 654.320312 C 449.242188 654.320312 449.242188 654.535156 449.457031 654.535156 C 449.675781 654.75 449.890625 654.75 450.105469 654.964844 C 450.320312 654.964844 450.320312 655.179688 450.535156 655.179688 C 450.75 655.398438 450.964844 655.398438 451.179688 655.613281 C 451.394531 655.613281 451.394531 655.828125 451.609375 655.828125 C 451.824219 656.042969 452.039062 656.257812 452.253906 656.257812 C 452.253906 656.257812 452.46875 656.257812 452.46875 656.472656 C 452.683594 656.6875 453.113281 656.902344 453.328125 657.332031 C 453.328125 657.332031 453.328125 657.332031 453.542969 657.546875 C 453.761719 657.761719 453.976562 657.976562 454.191406 658.191406 C 454.191406 658.191406 454.40625 658.40625 454.40625 658.40625 C 454.621094 658.621094 454.835938 658.839844 454.835938 659.054688 C 454.835938 659.054688 454.835938 659.269531 455.050781 659.269531 C 455.265625 659.484375 455.265625 659.914062 455.480469 660.128906 L 375.484375 660.558594 L 377.636719 646.148438 Z M 409.03125 645.71875 " fill-opacity="1" fill-rule="nonzero"/><path fill="#ff7382" d="M 409.03125 644.859375 C 409.675781 640.984375 412.257812 637.542969 415.914062 634.964844 C 418.277344 633.457031 421.289062 632.167969 424.300781 631.523438 C 425.375 631.308594 426.664062 631.09375 427.738281 631.09375 C 428.386719 631.09375 428.601562 631.09375 428.816406 630.878906 L 425.375 654.105469 L 413.117188 654.105469 L 415.914062 649.375 L 408.171875 649.375 Z M 409.03125 644.859375 " fill-opacity="1" fill-rule="nonzero"/><path fill="#6575ea" d="M 439.996094 380.523438 L 400.429688 374.070312 L 294.414062 356.433594 L 294.414062 458.382812 L 402.363281 458.382812 L 380.644531 622.703125 C 380.429688 623.132812 380.429688 623.78125 380.429688 624.210938 L 431.824219 624.210938 L 483.003906 458.382812 L 483.003906 426.765625 C 483.003906 403.96875 464.941406 384.609375 439.996094 380.523438 Z M 439.996094 380.523438 " fill-opacity="1" fill-rule="nonzero"/><g clip-path="url(#12fa51c5e3)"><path fill="#ffcc8a" d="M 170.765625 352.992188 L 719.765625 352.992188 L 719.765625 367.617188 L 170.765625 367.617188 Z M 170.765625 352.992188 " fill-opacity="1" fill-rule="nonzero"/></g><path fill="#bccbff" d="M 588.804688 351.703125 L 544.507812 351.703125 L 525.582031 320.300781 L 487.304688 257.496094 L 531.605469 257.496094 L 569.667969 320.300781 Z M 588.804688 351.703125 " fill-opacity="1" fill-rule="nonzero"/><path fill="#6575ea" d="M 569.667969 320.300781 L 525.582031 320.300781 L 487.304688 257.496094 L 531.605469 257.496094 Z M 569.667969 320.300781 " fill-opacity="1" fill-rule="nonzero"/><path fill="#bccbff" d="M 644.285156 157.054688 L 628.804688 285.027344 L 626.007812 307.824219 L 432.039062 307.824219 L 434.835938 285.027344 L 450.320312 157.054688 Z M 644.285156 157.054688 " fill-opacity="1" fill-rule="nonzero"/><path fill="#35324c" d="M 644.285156 157.054688 L 628.804688 285.027344 L 434.835938 285.027344 L 450.320312 157.054688 Z M 644.285156 157.054688 " fill-opacity="1" fill-rule="nonzero"/><path fill="#6575ea" d="M 629.878906 168.453125 L 616.332031 274.058594 L 447.308594 274.058594 L 460.855469 168.453125 Z M 629.878906 168.453125 " fill-opacity="1" fill-rule="nonzero"/><path fill="#7994f1" d="M 536.980469 296.855469 C 536.980469 297.167969 536.949219 297.476562 536.890625 297.78125 C 536.828125 298.085938 536.738281 298.378906 536.621094 298.667969 C 536.5 298.953125 536.355469 299.226562 536.183594 299.484375 C 536.011719 299.742188 535.816406 299.984375 535.59375 300.203125 C 535.375 300.421875 535.136719 300.617188 534.878906 300.789062 C 534.621094 300.964844 534.347656 301.109375 534.058594 301.226562 C 533.773438 301.347656 533.476562 301.4375 533.171875 301.496094 C 532.867188 301.558594 532.558594 301.589844 532.25 301.589844 C 531.9375 301.589844 531.632812 301.558594 531.328125 301.496094 C 531.023438 301.4375 530.726562 301.347656 530.4375 301.226562 C 530.152344 301.109375 529.878906 300.964844 529.621094 300.789062 C 529.363281 300.617188 529.125 300.421875 528.90625 300.203125 C 528.683594 299.984375 528.488281 299.742188 528.316406 299.484375 C 528.144531 299.226562 527.996094 298.953125 527.878906 298.667969 C 527.761719 298.378906 527.671875 298.085938 527.609375 297.78125 C 527.550781 297.476562 527.519531 297.167969 527.519531 296.855469 C 527.519531 296.546875 527.550781 296.238281 527.609375 295.933594 C 527.671875 295.628906 527.761719 295.332031 527.878906 295.046875 C 527.996094 294.757812 528.144531 294.484375 528.316406 294.226562 C 528.488281 293.96875 528.683594 293.730469 528.90625 293.511719 C 529.125 293.292969 529.363281 293.09375 529.621094 292.921875 C 529.878906 292.75 530.152344 292.605469 530.4375 292.484375 C 530.726562 292.367188 531.023438 292.277344 531.328125 292.214844 C 531.632812 292.15625 531.9375 292.125 532.25 292.125 C 532.558594 292.125 532.867188 292.15625 533.171875 292.214844 C 533.476562 292.277344 533.773438 292.367188 534.058594 292.484375 C 534.347656 292.605469 534.621094 292.75 534.878906 292.921875 C 535.136719 293.09375 535.375 293.292969 535.59375 293.511719 C 535.816406 293.730469 536.011719 293.96875 536.183594 294.226562 C 536.355469 294.484375 536.5 294.757812 536.621094 295.046875 C 536.738281 295.332031 536.828125 295.628906 536.890625 295.933594 C 536.949219 296.238281 536.980469 296.546875 536.980469 296.855469 Z M 536.980469 296.855469 " fill-opacity="1" fill-rule="nonzero"/><path fill="#bccbff" d="M 478.488281 229.320312 L 475.046875 255.777344 L 500.855469 255.777344 L 503.433594 229.320312 Z M 478.488281 229.320312 " fill-opacity="1" fill-rule="nonzero"/><path fill="#bccbff" d="M 507.304688 188.671875 L 483.652344 188.671875 L 479.566406 220.074219 L 504.292969 220.289062 Z M 507.304688 188.671875 " fill-opacity="1" fill-rule="nonzero"/><path fill="#bccbff" d="M 510.101562 255.777344 L 582.355469 255.777344 L 585.796875 229.320312 L 512.679688 229.320312 Z M 510.101562 255.777344 " fill-opacity="1" fill-rule="nonzero"/><path fill="#bccbff" d="M 586.871094 220.289062 L 590.957031 188.671875 L 516.550781 188.671875 L 513.542969 220.289062 Z M 586.871094 220.289062 " fill-opacity="1" fill-rule="nonzero"/><path fill="#fdc5b6" d="M 378.710938 161.570312 L 378.710938 183.722656 C 378.710938 188.457031 374.410156 192.113281 369.25 191.898438 L 368.386719 191.898438 L 366.238281 203.511719 L 339.359375 202.007812 L 347.746094 181.359375 L 359.570312 159.851562 Z M 378.710938 161.570312 " fill-opacity="1" fill-rule="nonzero"/><path fill="#35324c" d="M 346.453125 155.546875 C 345.378906 156.839844 344.519531 158.34375 343.875 160.28125 C 343.011719 163.078125 343.230469 165.871094 343.445312 168.667969 C 343.660156 173.398438 344.089844 177.917969 344.304688 182.648438 C 344.304688 183.292969 344.519531 184.152344 344.949219 184.800781 C 345.378906 185.230469 346.023438 185.230469 346.453125 185.445312 C 350.539062 186.304688 355.269531 187.164062 358.496094 184.800781 C 361.9375 182.433594 363.871094 180.066406 367.742188 177.917969 C 370.539062 176.410156 374.625 174.691406 374.839844 171.25 C 375.054688 170.175781 374.625 169.097656 374.839844 168.023438 C 375.269531 166.300781 377.207031 165.441406 378.925781 164.367188 C 387.3125 159.417969 390.109375 148.882812 382.582031 142 C 379.785156 139.417969 375.484375 138.34375 371.613281 139.417969 C 367.742188 140.492188 367.3125 142.859375 364.949219 145.222656 C 362.796875 147.589844 363.65625 147.160156 359.785156 148.234375 C 354.839844 149.957031 349.679688 151.675781 346.453125 155.546875 Z M 346.453125 155.546875 " fill-opacity="1" fill-rule="nonzero"/><path fill="#fdc5b6" d="M 368.171875 180.710938 L 368.601562 180.710938 C 370.539062 180.710938 372.042969 179.207031 372.042969 177.273438 L 372.042969 175.335938 C 372.042969 173.398438 370.539062 171.894531 368.601562 171.894531 L 368.171875 171.894531 C 366.238281 171.894531 364.734375 173.398438 364.734375 175.335938 L 364.734375 177.273438 C 364.734375 179.207031 366.238281 180.710938 368.171875 180.710938 Z M 368.171875 180.710938 " fill-opacity="1" fill-rule="nonzero"/><path fill="#e9eeff" d="M 330.109375 211.683594 L 331.402344 199.640625 C 331.617188 198.566406 332.476562 197.703125 333.765625 197.703125 L 374.625 198.78125 C 375.699219 198.78125 376.34375 199.425781 376.558594 200.5 L 378.28125 210.609375 C 378.496094 211.898438 377.421875 212.976562 376.128906 213.191406 L 332.261719 214.050781 C 330.972656 213.835938 330.109375 212.761719 330.109375 211.683594 Z M 330.109375 211.683594 " fill-opacity="1" fill-rule="nonzero"/><path fill="#e9eeff" d="M 411.179688 278.144531 C 410.105469 279.648438 409.246094 281.371094 408.601562 283.089844 C 408.601562 283.304688 408.386719 283.304688 408.386719 283.523438 C 402.578125 296.855469 403.441406 314.277344 403.011719 330.195312 C 402.796875 335.140625 402.578125 340.085938 401.933594 344.605469 C 401.71875 345.679688 401.503906 346.539062 401.503906 347.617188 C 400 355.144531 396.988281 361.597656 391.398438 366.113281 C 368.171875 383.964844 299.574219 371.058594 272.695312 366.113281 C 269.253906 365.46875 265.167969 364.605469 263.234375 361.597656 C 261.941406 359.660156 261.726562 357.292969 261.511719 355.144531 C 256.996094 314.277344 255.707031 278.574219 267.320312 238.570312 C 268.394531 234.699219 269.46875 231.042969 271.835938 227.816406 C 273.554688 225.449219 275.492188 223.730469 277.855469 222.007812 C 285.597656 215.984375 295.488281 210.609375 306.027344 207.8125 C 341.078125 197.917969 380.859375 199.640625 409.675781 223.082031 C 416.128906 228.460938 422.148438 234.699219 424.945312 242.441406 C 430.320312 257.496094 419.136719 266.316406 411.179688 278.144531 Z M 411.179688 278.144531 " fill-opacity="1" fill-rule="nonzero"/><path fill="#e9eeff" d="M 571.386719 595.605469 L 518.917969 595.820312 L 541.710938 645.503906 L 578.484375 645.289062 C 578.914062 644.859375 579.128906 644.425781 579.558594 643.996094 L 579.773438 634.75 C 579.773438 632.597656 583.644531 642.921875 586.011719 642.277344 Z M 571.386719 595.605469 " fill-opacity="1" fill-rule="nonzero"/><path fill="#d7deff" d="M 623.210938 665.71875 C 623.210938 665.503906 623.210938 665.074219 623.210938 664.859375 C 623.210938 664.859375 623.210938 664.644531 623.210938 664.644531 C 623.210938 664.429688 623.210938 664.214844 623.210938 664 C 623.210938 664 623.210938 663.785156 623.210938 663.785156 C 623.210938 663.570312 623.210938 663.355469 622.996094 663.140625 C 622.996094 663.140625 622.996094 662.925781 622.996094 662.925781 C 622.996094 662.710938 622.78125 662.277344 622.78125 662.0625 C 622.78125 662.0625 622.78125 661.847656 622.78125 661.847656 C 622.78125 661.632812 622.566406 661.417969 622.566406 661.203125 C 622.566406 660.988281 622.566406 660.988281 622.351562 660.773438 C 622.351562 660.558594 622.136719 660.558594 622.136719 660.34375 C 622.136719 660.128906 621.921875 660.128906 621.921875 659.914062 L 543.648438 660.34375 L 545.796875 670.667969 L 623.210938 670.238281 Z M 623.210938 665.71875 " fill-opacity="1" fill-rule="nonzero"/><path fill="#ff7382" d="M 575.902344 645.289062 L 576.976562 645.289062 L 576.976562 644.640625 L 593.320312 644.640625 L 613.964844 653.675781 C 614.394531 653.890625 614.824219 653.890625 615.039062 654.105469 C 615.253906 654.105469 615.253906 654.320312 615.46875 654.320312 C 615.6875 654.535156 615.902344 654.535156 616.117188 654.75 C 616.332031 654.75 616.332031 654.964844 616.546875 654.964844 C 616.761719 655.179688 616.976562 655.179688 617.191406 655.398438 C 617.40625 655.398438 617.40625 655.613281 617.621094 655.613281 C 617.835938 655.828125 618.050781 656.042969 618.265625 656.257812 C 618.265625 656.257812 618.480469 656.257812 618.480469 656.472656 C 618.695312 656.6875 619.125 656.902344 619.339844 657.332031 C 619.339844 657.332031 619.339844 657.332031 619.554688 657.546875 C 619.773438 657.761719 619.988281 657.976562 620.203125 658.191406 C 620.203125 658.191406 620.417969 658.40625 620.417969 658.40625 C 620.632812 658.621094 620.847656 658.839844 621.0625 659.054688 C 621.0625 659.054688 621.0625 659.269531 621.277344 659.269531 C 621.492188 659.484375 621.707031 659.914062 621.707031 660.128906 L 543.433594 660.558594 L 540.421875 645.933594 L 541.066406 645.933594 Z M 575.902344 645.289062 " fill-opacity="1" fill-rule="nonzero"/><path fill="#ff7382" d="M 575.6875 640.554688 C 575.6875 636.683594 577.839844 633.027344 581.0625 630.664062 C 583.214844 628.941406 586.011719 627.867188 589.019531 627.222656 C 590.097656 627.007812 591.386719 626.789062 592.460938 626.789062 C 593.105469 626.789062 593.320312 626.789062 593.535156 626.574219 L 593.535156 650.234375 L 581.496094 650.234375 L 583.644531 645.503906 L 575.902344 645.503906 L 575.902344 640.554688 Z M 575.6875 640.554688 " fill-opacity="1" fill-rule="nonzero"/><path fill="#92a5f8" d="M 313.121094 452.359375 L 441.933594 452.359375 C 452.039062 452.359375 460.855469 458.382812 464.726562 467.632812 L 526.875 619.476562 L 590.097656 617.757812 L 521.710938 404.828125 C 516.121094 383.964844 495.691406 369.125 472.039062 368.480469 L 264.738281 364.175781 L 265.597656 409.773438 C 266.242188 433.433594 287.316406 452.359375 313.121094 452.359375 Z M 313.121094 452.359375 " fill-opacity="1" fill-rule="nonzero"/><path fill="#92a5f8" d="M 321.722656 408.484375 L 327.316406 408.484375 L 327.316406 649.160156 L 321.722656 649.160156 Z M 321.722656 408.484375 " fill-opacity="1" fill-rule="nonzero"/><g clip-path="url(#30bcd1b8ca)"><path fill="#35324c" d="M 290.542969 666.367188 C 290.542969 666.703125 290.511719 667.039062 290.445312 667.371094 C 290.378906 667.707031 290.28125 668.027344 290.152344 668.339844 C 290.019531 668.652344 289.863281 668.953125 289.671875 669.234375 C 289.484375 669.515625 289.273438 669.777344 289.03125 670.015625 C 288.792969 670.253906 288.53125 670.46875 288.25 670.65625 C 287.96875 670.847656 287.671875 671.003906 287.359375 671.132812 C 287.042969 671.265625 286.722656 671.363281 286.390625 671.429688 C 286.058594 671.496094 285.722656 671.527344 285.382812 671.527344 C 285.042969 671.527344 284.707031 671.496094 284.375 671.429688 C 284.042969 671.363281 283.71875 671.265625 283.40625 671.132812 C 283.09375 671.003906 282.796875 670.847656 282.515625 670.65625 C 282.234375 670.46875 281.972656 670.253906 281.734375 670.015625 C 281.492188 669.777344 281.28125 669.515625 281.089844 669.234375 C 280.902344 668.953125 280.742188 668.652344 280.613281 668.339844 C 280.484375 668.027344 280.386719 667.707031 280.320312 667.371094 C 280.253906 667.039062 280.222656 666.703125 280.222656 666.367188 C 280.222656 666.027344 280.253906 665.691406 280.320312 665.359375 C 280.386719 665.027344 280.484375 664.703125 280.613281 664.390625 C 280.742188 664.078125 280.902344 663.78125 281.089844 663.496094 C 281.28125 663.214844 281.492188 662.957031 281.734375 662.714844 C 281.972656 662.476562 282.234375 662.261719 282.515625 662.074219 C 282.796875 661.886719 283.09375 661.726562 283.40625 661.597656 C 283.71875 661.46875 284.042969 661.367188 284.375 661.304688 C 284.707031 661.238281 285.042969 661.203125 285.382812 661.203125 C 285.722656 661.203125 286.058594 661.238281 286.390625 661.304688 C 286.722656 661.367188 287.042969 661.46875 287.359375 661.597656 C 287.671875 661.726562 287.96875 661.886719 288.25 662.074219 C 288.53125 662.261719 288.792969 662.476562 289.03125 662.714844 C 289.273438 662.957031 289.484375 663.214844 289.671875 663.496094 C 289.863281 663.78125 290.019531 664.078125 290.152344 664.390625 C 290.28125 664.703125 290.378906 665.027344 290.445312 665.359375 C 290.511719 665.691406 290.542969 666.027344 290.542969 666.367188 Z M 290.542969 666.367188 " fill-opacity="1" fill-rule="nonzero"/></g><g clip-path="url(#0266f94f13)"><path fill="#35324c" d="M 316.5625 666.367188 C 316.5625 666.703125 316.53125 667.039062 316.464844 667.371094 C 316.398438 667.707031 316.300781 668.027344 316.171875 668.339844 C 316.039062 668.652344 315.882812 668.953125 315.695312 669.234375 C 315.503906 669.515625 315.292969 669.777344 315.050781 670.015625 C 314.8125 670.253906 314.550781 670.46875 314.269531 670.65625 C 313.988281 670.847656 313.691406 671.003906 313.378906 671.132812 C 313.0625 671.265625 312.742188 671.363281 312.410156 671.429688 C 312.078125 671.496094 311.742188 671.527344 311.402344 671.527344 C 311.0625 671.527344 310.726562 671.496094 310.394531 671.429688 C 310.0625 671.363281 309.742188 671.265625 309.425781 671.132812 C 309.113281 671.003906 308.816406 670.847656 308.535156 670.65625 C 308.253906 670.46875 307.992188 670.253906 307.753906 670.015625 C 307.511719 669.777344 307.300781 669.515625 307.109375 669.234375 C 306.921875 668.953125 306.765625 668.652344 306.632812 668.339844 C 306.503906 668.027344 306.40625 667.707031 306.339844 667.371094 C 306.273438 667.039062 306.242188 666.703125 306.242188 666.367188 C 306.242188 666.027344 306.273438 665.691406 306.339844 665.359375 C 306.40625 665.027344 306.503906 664.703125 306.632812 664.390625 C 306.765625 664.078125 306.921875 663.78125 307.109375 663.496094 C 307.300781 663.214844 307.511719 662.957031 307.753906 662.714844 C 307.992188 662.476562 308.253906 662.261719 308.535156 662.074219 C 308.816406 661.886719 309.113281 661.726562 309.425781 661.597656 C 309.742188 661.46875 310.0625 661.367188 310.394531 661.304688 C 310.726562 661.238281 311.0625 661.203125 311.402344 661.203125 C 311.742188 661.203125 312.078125 661.238281 312.410156 661.304688 C 312.742188 661.367188 313.0625 661.46875 313.378906 661.597656 C 313.691406 661.726562 313.988281 661.886719 314.269531 662.074219 C 314.550781 662.261719 314.8125 662.476562 315.050781 662.714844 C 315.292969 662.957031 315.503906 663.214844 315.695312 663.496094 C 315.882812 663.78125 316.039062 664.078125 316.171875 664.390625 C 316.300781 664.703125 316.398438 665.027344 316.464844 665.359375 C 316.53125 665.691406 316.5625 666.027344 316.5625 666.367188 Z M 316.5625 666.367188 " fill-opacity="1" fill-rule="nonzero"/></g><g clip-path="url(#6881fecf34)"><path fill="#35324c" d="M 342.582031 666.367188 C 342.582031 666.703125 342.550781 667.039062 342.484375 667.371094 C 342.417969 667.707031 342.320312 668.027344 342.191406 668.339844 C 342.0625 668.652344 341.902344 668.953125 341.714844 669.234375 C 341.527344 669.515625 341.3125 669.777344 341.070312 670.015625 C 340.832031 670.253906 340.570312 670.46875 340.289062 670.65625 C 340.007812 670.847656 339.710938 671.003906 339.398438 671.132812 C 339.085938 671.265625 338.761719 671.363281 338.429688 671.429688 C 338.097656 671.496094 337.761719 671.527344 337.421875 671.527344 C 337.082031 671.527344 336.746094 671.496094 336.414062 671.429688 C 336.082031 671.363281 335.761719 671.265625 335.449219 671.132812 C 335.132812 671.003906 334.835938 670.847656 334.554688 670.65625 C 334.273438 670.46875 334.011719 670.253906 333.773438 670.015625 C 333.535156 669.777344 333.320312 669.515625 333.132812 669.234375 C 332.941406 668.953125 332.785156 668.652344 332.65625 668.339844 C 332.523438 668.027344 332.425781 667.707031 332.359375 667.371094 C 332.292969 667.039062 332.261719 666.703125 332.261719 666.367188 C 332.261719 666.027344 332.292969 665.691406 332.359375 665.359375 C 332.425781 665.027344 332.523438 664.703125 332.65625 664.390625 C 332.785156 664.078125 332.941406 663.78125 333.132812 663.496094 C 333.320312 663.214844 333.535156 662.957031 333.773438 662.714844 C 334.011719 662.476562 334.273438 662.261719 334.554688 662.074219 C 334.835938 661.886719 335.132812 661.726562 335.449219 661.597656 C 335.761719 661.46875 336.082031 661.367188 336.414062 661.304688 C 336.746094 661.238281 337.082031 661.203125 337.421875 661.203125 C 337.761719 661.203125 338.097656 661.238281 338.429688 661.304688 C 338.761719 661.367188 339.085938 661.46875 339.398438 661.597656 C 339.710938 661.726562 340.007812 661.886719 340.289062 662.074219 C 340.570312 662.261719 340.832031 662.476562 341.070312 662.714844 C 341.3125 662.957031 341.527344 663.214844 341.714844 663.496094 C 341.902344 663.78125 342.0625 664.078125 342.191406 664.390625 C 342.320312 664.703125 342.417969 665.027344 342.484375 665.359375 C 342.550781 665.691406 342.582031 666.027344 342.582031 666.367188 Z M 342.582031 666.367188 " fill-opacity="1" fill-rule="nonzero"/></g><g clip-path="url(#7d91a96102)"><path fill="#35324c" d="M 368.820312 666.367188 C 368.820312 666.703125 368.785156 667.039062 368.71875 667.371094 C 368.652344 667.707031 368.554688 668.027344 368.425781 668.339844 C 368.296875 668.652344 368.136719 668.953125 367.949219 669.234375 C 367.761719 669.515625 367.546875 669.777344 367.308594 670.015625 C 367.066406 670.253906 366.804688 670.46875 366.523438 670.65625 C 366.242188 670.847656 365.945312 671.003906 365.632812 671.132812 C 365.320312 671.265625 364.996094 671.363281 364.664062 671.429688 C 364.332031 671.496094 363.996094 671.527344 363.65625 671.527344 C 363.320312 671.527344 362.984375 671.496094 362.652344 671.429688 C 362.316406 671.363281 361.996094 671.265625 361.683594 671.132812 C 361.371094 671.003906 361.070312 670.847656 360.789062 670.65625 C 360.507812 670.46875 360.246094 670.253906 360.007812 670.015625 C 359.769531 669.777344 359.554688 669.515625 359.367188 669.234375 C 359.179688 668.953125 359.019531 668.652344 358.890625 668.339844 C 358.757812 668.027344 358.660156 667.707031 358.59375 667.371094 C 358.53125 667.039062 358.496094 666.703125 358.496094 666.367188 C 358.496094 666.027344 358.53125 665.691406 358.59375 665.359375 C 358.660156 665.027344 358.757812 664.703125 358.890625 664.390625 C 359.019531 664.078125 359.179688 663.78125 359.367188 663.496094 C 359.554688 663.214844 359.769531 662.957031 360.007812 662.714844 C 360.246094 662.476562 360.507812 662.261719 360.789062 662.074219 C 361.070312 661.886719 361.371094 661.726562 361.683594 661.597656 C 361.996094 661.46875 362.316406 661.367188 362.652344 661.304688 C 362.984375 661.238281 363.320312 661.203125 363.65625 661.203125 C 363.996094 661.203125 364.332031 661.238281 364.664062 661.304688 C 364.996094 661.367188 365.320312 661.46875 365.632812 661.597656 C 365.945312 661.726562 366.242188 661.886719 366.523438 662.074219 C 366.804688 662.261719 367.066406 662.476562 367.308594 662.714844 C 367.546875 662.957031 367.761719 663.214844 367.949219 663.496094 C 368.136719 663.78125 368.296875 664.078125 368.425781 664.390625 C 368.554688 664.703125 368.652344 665.027344 368.71875 665.359375 C 368.785156 665.691406 368.820312 666.027344 368.820312 666.367188 Z M 368.820312 666.367188 " fill-opacity="1" fill-rule="nonzero"/></g><path fill="#bccbff" d="M 313.984375 616.46875 L 335.058594 616.46875 L 335.058594 651.523438 L 313.984375 651.523438 Z M 313.984375 616.46875 " fill-opacity="1" fill-rule="nonzero"/><path fill="#bccbff" d="M 271.191406 648.082031 L 384.300781 648.082031 L 384.300781 655.828125 L 271.191406 655.828125 Z M 271.191406 648.082031 " fill-opacity="1" fill-rule="nonzero"/><path fill="#bccbff" d="M 313.984375 442.679688 L 335.058594 442.679688 L 335.058594 477.738281 L 313.984375 477.738281 Z M 313.984375 442.679688 " fill-opacity="1" fill-rule="nonzero"/><path fill="#ff7382" d="M 316.992188 273.628906 L 274.199219 272.335938 C 248.394531 271.476562 227.964844 299.652344 230.976562 331.914062 L 241.945312 445.261719 C 243.449219 460.316406 254.203125 471.71875 266.890625 471.71875 L 355.484375 471.71875 C 350.324219 406.546875 339.144531 326.324219 335.703125 280.296875 C 332.261719 276.640625 322.371094 273.84375 316.992188 273.628906 Z M 316.992188 273.628906 " fill-opacity="1" fill-rule="nonzero"/><path fill="#35324c" d="M 336.5625 280.296875 C 336.5625 280.296875 336.347656 280.082031 336.347656 280.082031 C 334.625 279.003906 332.476562 280.296875 332.691406 282.230469 C 336.132812 327.183594 341.9375 401.816406 346.667969 463.328125 C 347.097656 467.847656 350.753906 471.503906 355.484375 471.503906 L 440.210938 471.503906 L 466.445312 470.210938 C 465.371094 462.253906 461.070312 456.015625 455.695312 452.789062 L 364.300781 452.789062 L 353.765625 311.265625 C 352.90625 299.007812 346.667969 287.394531 336.5625 280.296875 Z M 336.5625 280.296875 " fill-opacity="1" fill-rule="nonzero"/><path fill="#35324c" d="M 409.890625 275.347656 C 409.890625 275.347656 409.675781 275.5625 409.675781 275.777344 C 403.65625 286.960938 404.730469 301.589844 404.300781 314.921875 C 404.085938 319.226562 403.871094 323.3125 403.226562 326.96875 C 397.847656 322.234375 393.332031 317.289062 388.171875 309.761719 C 377.636719 294.707031 367.3125 269.972656 363.65625 252.335938 C 362.367188 246.097656 358.496094 234.914062 368.820312 234.269531 C 377.207031 233.621094 385.808594 244.59375 389.675781 249.324219 C 396.34375 257.925781 403.226562 266.53125 409.890625 275.347656 Z M 409.890625 275.347656 " fill-opacity="1" fill-rule="nonzero"/><path fill="#e9eeff" d="M 586.441406 349.121094 L 566.441406 349.121094 C 563.214844 349.335938 559.988281 349.550781 556.980469 349.980469 C 553.109375 350.410156 549.023438 350.84375 545.152344 351.488281 C 530.3125 353.636719 515.476562 356.648438 500.855469 358.800781 C 483.433594 361.164062 471.824219 361.597656 460.425781 357.722656 C 452.039062 354.929688 444.082031 349.765625 433.976562 341.808594 C 402.796875 316.644531 369.679688 289.972656 349.464844 255.777344 C 310.757812 190.175781 384.300781 191.898438 421.289062 231.257812 C 452.683594 264.59375 479.132812 299.222656 513.109375 328.042969 C 521.28125 327.828125 529.667969 328.472656 537.625 329.765625 C 555.042969 332.34375 571.816406 339.011719 586.441406 349.121094 Z M 586.441406 349.121094 " fill-opacity="1" fill-rule="nonzero"/><path fill="#fdc5b6" d="M 586.441406 349.121094 L 566.441406 349.121094 C 563.214844 349.335938 559.988281 349.550781 556.980469 349.980469 L 537.625 329.550781 C 555.042969 332.34375 571.816406 339.011719 586.441406 349.121094 Z M 586.441406 349.121094 " fill-opacity="1" fill-rule="nonzero"/><path fill="#7994f1" d="M 533.753906 353.851562 L 552.679688 348.261719 L 624.289062 348.261719 C 627.511719 348.261719 629.878906 350.84375 629.878906 353.851562 Z M 533.753906 353.851562 " fill-opacity="1" fill-rule="nonzero"/></svg>